<?xml version="1.0" encoding="UTF-8" standalone="no"?>
<!DOCTYPE svg PUBLIC "-//W3C//DTD SVG 1.1//EN" "http://www.w3.org/Graphics/SVG/1.1/DTD/svg11.dtd">
<svg version="1.1" xmlns="http://www.w3.org/2000/svg" xmlns:xlink="http://www.w3.org/1999/xlink" preserveAspectRatio="xMidYMid meet" viewBox="0 0 138 413" width="138" height="413"><defs><path d="M114.36 18.78L111.57 27.44L108.77 35.97L95.98 35.97L95.98 42.37L95.98 42.84L95.98 43.29L95.99 43.72L96.01 44.14L96.04 44.56L96.07 44.96L96.12 45.37L96.19 45.77L96.27 46.17L96.37 46.58L96.49 47L96.63 47.43L96.8 47.87L96.99 48.33L97.21 48.82L97.46 49.32L97.74 49.85L98.06 50.41L98.41 51L98.79 51.62L99.22 52.29L99.69 52.99L100.2 53.74L100.76 54.54L101.36 55.38L102.01 56.28L102.71 57.24L103.47 58.25L104.28 59.32L105.14 60.46L106.06 61.67L107.05 62.95L108.09 64.3L109.2 65.73L110.37 67.24L111.62 68.83L112.93 70.5L114.31 72.27L115.76 74.12L117.3 76.07L138.48 103.25L138.61 136.96L138.61 170.8L126.49 200.9L125.82 202.56L125.17 204.18L124.52 205.77L123.88 207.33L123.24 208.87L122.61 210.38L121.99 211.86L121.38 213.32L120.76 214.76L120.16 216.17L119.55 217.57L118.95 218.94L118.35 220.29L117.76 221.63L117.16 222.95L116.57 224.25L115.98 225.54L115.38 226.82L114.79 228.08L114.2 229.33L113.6 230.57L113 231.81L112.4 233.03L111.8 234.25L111.2 235.46L110.58 236.67L109.97 237.87L109.35 239.07L108.72 240.27L108.09 241.47L107.45 242.66L106.8 243.87L106.15 245.07L105.49 246.28L104.82 247.49L104.14 248.71L103.44 249.93L102.74 251.17L102.03 252.41L101.31 253.66L99.85 256.23L98.45 258.68L97.12 261.03L95.84 263.28L94.63 265.43L93.46 267.48L92.36 269.44L91.31 271.31L90.31 273.08L89.36 274.76L88.47 276.36L87.62 277.88L86.82 279.31L86.07 280.67L85.36 281.95L84.7 283.15L84.08 284.29L83.51 285.35L82.97 286.35L82.47 287.28L82.02 288.16L81.59 288.97L81.21 289.72L80.86 290.42L80.54 291.07L80.25 291.66L80 292.21L79.77 292.71L79.58 293.17L79.41 293.59L79.26 293.96L79.14 294.31L79.05 294.62L78.97 294.89L78.92 295.14L78.89 295.36L78.87 295.56L78.87 295.73L78.89 295.89L78.93 296.03L78.96 296.07L79 296.08L79.07 296.06L79.15 296.01L79.26 295.93L79.37 295.82L79.51 295.68L79.66 295.52L79.83 295.32L80.01 295.1L80.21 294.85L80.42 294.57L80.64 294.27L80.88 293.94L81.14 293.59L81.4 293.21L81.68 292.81L81.97 292.39L82.28 291.95L82.59 291.48L82.92 290.99L83.25 290.49L83.6 289.96L83.95 289.41L84.32 288.84L84.69 288.26L85.07 287.65L85.47 287.03L85.86 286.4L86.27 285.74L86.68 285.07L87.1 284.39L87.53 283.69L87.96 282.98L88.4 282.25L88.84 281.51L89.29 280.76L89.74 280L90.19 279.23L90.65 278.44L91.78 276.5L92.88 274.59L93.96 272.74L95.01 270.92L96.04 269.16L97.04 267.44L98.02 265.76L98.98 264.13L99.9 262.55L100.8 261.02L101.68 259.53L102.53 258.09L103.35 256.7L104.14 255.36L104.91 254.07L105.65 252.82L106.37 251.63L107.05 250.48L107.71 249.39L108.34 248.35L108.94 247.36L109.51 246.42L110.05 245.53L110.56 244.7L111.05 243.91L111.5 243.18L111.93 242.51L112.32 241.89L112.69 241.32L113.02 240.8L113.32 240.34L113.59 239.94L113.84 239.59L114.05 239.3L114.22 239.06L114.37 238.88L114.48 238.76L114.56 238.7L114.61 238.69L114.63 238.74L114.67 239.14L114.79 240.13L114.99 241.66L115.26 243.72L115.6 246.28L116 249.29L116.46 252.73L116.98 256.58L117.55 260.79L118.16 265.35L118.82 270.21L119.52 275.36L120.25 280.75L121.01 286.36L121.8 292.16L122.61 298.11L123.44 304.2L124.28 310.38L125.13 316.62L125.99 322.91L126.85 329.19L127.7 335.46L128.55 341.66L129.39 347.79L130.22 353.79L131.02 359.65L131.8 365.33L132.56 370.81L133.28 376.04L133.97 381.01L134.61 385.68L135.21 390.03L135.77 394.01L136.27 397.6L136.71 400.77L137.1 403.49L137.42 405.74L137.67 407.47L137.85 408.65L137.95 409.27L138.61 413L-0.34 413L0.72 404.74L0.76 404.28L0.83 403.6L0.92 402.71L1.03 401.61L1.17 400.3L1.32 398.8L1.5 397.1L1.7 395.21L1.92 393.13L2.16 390.88L2.42 388.45L2.69 385.84L2.99 383.07L3.3 380.14L3.63 377.05L3.98 373.8L4.34 370.41L4.72 366.88L5.11 363.2L5.52 359.39L5.94 355.45L6.38 351.39L6.82 347.21L7.28 342.91L7.76 338.5L8.24 333.98L8.73 329.36L9.24 324.65L9.75 319.84L10.28 314.94L10.81 309.97L11.35 304.91L11.9 299.78L12.46 294.58L13.02 289.31L13.59 283.99L14.16 278.61L14.74 273.18L15.32 267.7L15.91 262.19L30.3 128.03L47.88 104.58L48.61 103.62L49.33 102.66L50.04 101.71L50.75 100.76L51.44 99.83L52.13 98.9L52.81 97.99L53.48 97.09L54.14 96.2L54.78 95.33L55.42 94.47L56.04 93.62L56.65 92.8L57.24 91.98L57.82 91.19L58.39 90.41L58.94 89.66L59.47 88.92L59.99 88.21L60.49 87.51L60.97 86.84L61.44 86.2L61.88 85.57L62.31 84.98L62.72 84.4L63.1 83.86L63.47 83.34L63.81 82.86L64.13 82.4L64.43 81.97L64.7 81.57L64.95 81.21L65.17 80.87L65.37 80.58L65.55 80.31L65.69 80.08L65.81 79.89L65.91 79.73L65.97 79.62L66 79.54L66.03 79.46L66.05 79.38L66.07 79.29L66.08 79.19L66.09 79.09L66.09 78.98L66.08 78.86L66.07 78.74L66.06 78.61L66.04 78.47L66.02 78.33L65.99 78.18L65.96 78.03L65.92 77.87L65.88 77.71L65.83 77.54L65.78 77.37L65.73 77.19L65.67 77.01L65.6 76.82L65.54 76.63L65.47 76.44L65.39 76.24L65.31 76.04L65.23 75.84L65.14 75.64L65.06 75.43L64.96 75.22L64.87 75.01L64.77 74.8L64.66 74.58L64.56 74.36L64.45 74.15L64.34 73.93L64.22 73.71L64.1 73.49L63.98 73.27L63.86 73.05L63.73 72.83L63.61 72.61L63.4 72.25L63.2 71.9L63.01 71.57L62.82 71.26L62.64 70.96L62.47 70.68L62.29 70.41L62.12 70.16L61.96 69.92L61.79 69.69L61.63 69.47L61.46 69.27L61.3 69.08L61.14 68.9L60.97 68.73L60.8 68.58L60.63 68.43L60.46 68.29L60.28 68.16L60.09 68.05L59.9 67.93L59.7 67.83L59.5 67.74L59.29 67.65L59.07 67.57L58.84 67.49L58.6 67.42L58.35 67.36L58.09 67.3L57.82 67.25L57.53 67.2L57.23 67.16L56.92 67.11L56.59 67.07L56.25 67.04L55.89 67L55.51 66.97L55.12 66.94L54.71 66.91L54.28 66.88L53.85 66.85L53.44 66.82L53.05 66.79L52.67 66.76L52.31 66.72L51.97 66.68L51.64 66.65L51.33 66.6L51.03 66.56L50.75 66.51L50.48 66.46L50.22 66.4L49.97 66.34L49.74 66.27L49.51 66.2L49.3 66.12L49.09 66.03L48.89 65.94L48.7 65.84L48.52 65.73L48.34 65.61L48.17 65.49L48 65.35L47.84 65.21L47.69 65.06L47.53 64.89L47.38 64.72L47.23 64.53L47.08 64.33L46.94 64.13L46.79 63.9L46.64 63.67L46.49 63.42L46.34 63.16L46.18 62.88L46.03 62.6L45.87 62.29L45.7 61.97L45.53 61.64L45.35 61.28L45.24 61.06L45.14 60.84L45.03 60.61L44.92 60.37L44.82 60.13L44.71 59.89L44.61 59.65L44.51 59.41L44.42 59.16L44.32 58.91L44.22 58.66L44.13 58.4L44.04 58.15L43.95 57.9L43.87 57.64L43.78 57.39L43.7 57.13L43.62 56.88L43.55 56.62L43.47 56.37L43.4 56.12L43.33 55.87L43.27 55.62L43.2 55.38L43.15 55.13L43.09 54.89L43.04 54.65L42.99 54.42L42.94 54.19L42.9 53.96L42.86 53.74L42.83 53.52L42.79 53.3L42.77 53.09L42.74 52.89L42.72 52.69L42.71 52.5L42.7 52.31L42.69 52.13L42.69 51.96L42.69 51.69L42.68 51.44L42.67 51.19L42.66 50.95L42.64 50.73L42.61 50.51L42.59 50.3L42.55 50.1L42.51 49.9L42.47 49.72L42.42 49.55L42.37 49.38L42.31 49.22L42.25 49.07L42.18 48.93L42.11 48.8L42.03 48.67L41.94 48.55L41.85 48.45L41.76 48.34L41.65 48.25L41.54 48.16L41.43 48.09L41.31 48.02L41.18 47.95L41.05 47.9L40.9 47.85L40.76 47.81L40.6 47.77L40.44 47.74L40.27 47.72L40.1 47.71L39.91 47.7L39.72 47.7L39.53 47.7L39.32 47.72L39.11 47.74L38.89 47.76L38.66 47.79L38.43 47.83L38.31 47.85L38.2 47.86L38.1 47.86L38 47.86L37.91 47.86L37.83 47.85L37.76 47.83L37.7 47.8L37.64 47.77L37.59 47.73L37.54 47.68L37.51 47.62L37.48 47.56L37.46 47.48L37.45 47.4L37.44 47.3L37.45 47.2L37.46 47.09L37.48 46.96L37.51 46.83L37.55 46.68L37.59 46.53L37.64 46.36L37.71 46.18L37.78 45.99L37.86 45.78L37.94 45.56L38.04 45.33L38.14 45.09L38.26 44.83L38.38 44.56L38.51 44.27L38.65 43.97L38.8 43.66L38.96 43.33L39.13 42.98L39.3 42.62L39.49 42.24L39.69 41.84L39.89 41.43L42.56 36.37L36.56 33.57L36 33.29L35.48 33.01L34.98 32.74L34.51 32.46L34.06 32.18L33.65 31.9L33.26 31.62L32.9 31.34L32.57 31.05L32.26 30.76L31.99 30.48L31.74 30.18L31.52 29.89L31.32 29.59L31.16 29.28L31.02 28.98L30.91 28.66L30.83 28.35L30.77 28.02L30.75 27.69L30.75 27.36L30.78 27.02L30.84 26.67L30.92 26.31L31.03 25.95L31.17 25.58L31.34 25.19L31.53 24.81L31.76 24.41L32.01 24L32.29 23.58L32.59 23.15L32.92 22.71L33.29 22.27L33.67 21.8L34.09 21.33L34.53 20.85L35 20.35L35.5 19.84L36.03 19.32L36.47 18.89L36.89 18.47L37.28 18.07L37.66 17.69L38.02 17.32L38.36 16.97L38.68 16.63L38.98 16.3L39.26 16L39.52 15.7L39.76 15.42L39.98 15.15L40.18 14.89L40.36 14.65L40.52 14.42L40.67 14.21L40.79 14L40.9 13.81L40.99 13.63L41.06 13.46L41.11 13.3L41.14 13.15L41.15 13.01L41.15 12.88L41.13 12.76L41.09 12.65L41.03 12.56L40.95 12.47L40.86 12.38L40.75 12.31L40.62 12.25L40.47 12.19L40.31 12.14L40.13 12.1L39.93 12.06L39.72 12.04L39.49 12.02L39.24 12L38.97 11.99L38.69 11.99L38.58 11.99L38.47 11.98L38.36 11.96L38.26 11.94L38.15 11.91L38.05 11.87L37.96 11.83L37.86 11.78L37.77 11.72L37.68 11.66L37.59 11.59L37.5 11.51L37.42 11.43L37.34 11.34L37.26 11.24L37.18 11.14L37.1 11.03L37.03 10.91L36.96 10.79L36.89 10.66L36.83 10.52L36.76 10.38L36.7 10.23L36.65 10.07L36.59 9.91L36.54 9.74L36.48 9.56L36.44 9.38L36.39 9.19L36.34 8.99L36.3 8.79L36.26 8.58L36.22 8.36L36.19 8.14L36.16 7.91L36.13 7.67L36.1 7.43L36.07 7.18L36.05 6.92L36.03 6.66L36.03 1.33L73.6 1.33L93.98 10.13L114.36 18.78ZM90.12 130.2L90.05 130.39L89.97 130.66L89.87 130.98L89.76 131.37L89.64 131.83L89.5 132.35L89.35 132.92L89.19 133.56L89.02 134.25L88.84 135L88.64 135.8L88.44 136.66L88.23 137.56L88 138.52L87.77 139.53L87.52 140.58L87.27 141.69L87.01 142.83L86.74 144.02L86.46 145.25L86.17 146.53L85.88 147.84L85.58 149.19L85.27 150.58L84.96 152L84.64 153.46L84.31 154.95L83.98 156.47L83.64 158.02L83.3 159.6L82.95 161.2L82.6 162.83L82.25 164.49L81.89 166.17L81.53 167.87L81.16 169.59L80.79 171.33L80.18 174.18L79.58 176.91L79.02 179.52L78.48 182.01L77.96 184.39L77.46 186.66L76.98 188.82L76.53 190.88L76.09 192.85L75.66 194.72L75.26 196.5L74.87 198.19L74.49 199.8L74.13 201.33L73.77 202.78L73.43 204.17L73.1 205.48L72.77 206.74L72.46 207.93L72.15 209.06L71.84 210.15L71.54 211.18L71.25 212.17L70.95 213.12L70.65 214.03L70.36 214.91L70.06 215.76L69.77 216.58L69.46 217.38L69.16 218.17L68.84 218.93L68.53 219.69L68.2 220.44L67.86 221.19L67.52 221.94L67.16 222.69L66.79 223.45L66.41 224.22L66.02 225.01L65.6 225.82L65.26 226.52L64.92 227.22L64.58 227.91L64.25 228.62L63.93 229.32L63.61 230.03L63.29 230.75L62.98 231.47L62.67 232.2L62.36 232.94L62.06 233.7L61.76 234.46L61.46 235.24L61.16 236.03L60.86 236.84L60.57 237.66L60.27 238.5L59.97 239.37L59.67 240.25L59.38 241.16L59.07 242.08L58.77 243.04L58.47 244.02L58.16 245.02L57.85 246.06L57.54 247.12L57.22 248.21L56.9 249.34L56.57 250.5L56.24 251.69L55.9 252.92L55.56 254.19L55.21 255.49L54.85 256.83L54.49 258.22L54.11 259.64L53.74 261.11L53.35 262.62L52.95 264.18L52.55 265.79L45.49 293.76L48.95 297.36L49.29 297.7L49.63 298.03L49.97 298.33L50.31 298.62L50.66 298.9L51 299.15L51.34 299.39L51.68 299.61L52.03 299.82L52.37 300L52.72 300.17L53.06 300.33L53.41 300.46L53.76 300.58L54.1 300.68L54.45 300.76L54.8 300.83L55.15 300.88L55.5 300.91L55.84 300.92L56.19 300.92L56.55 300.9L56.9 300.86L57.25 300.8L57.6 300.73L57.95 300.64L58.31 300.53L58.66 300.4L59.01 300.26L59.37 300.1L59.72 299.92L60.08 299.72L60.43 299.5L60.79 299.27L61.15 299.02L61.5 298.75L61.86 298.46L62.22 298.16L62.58 297.83L62.94 297.49L63.37 297.08L63.77 296.66L64.15 296.25L64.5 295.85L64.83 295.45L65.13 295.05L65.41 294.66L65.66 294.27L65.89 293.88L66.09 293.5L66.27 293.12L66.42 292.75L66.55 292.38L66.65 292.01L66.73 291.64L66.78 291.28L66.81 290.92L66.82 290.56L66.8 290.2L66.75 289.85L66.68 289.5L66.59 289.15L66.47 288.8L66.33 288.46L66.16 288.11L65.96 287.77L65.75 287.43L65.5 287.09L65.24 286.76L64.94 286.42L64.63 286.09L64.29 285.75L63.92 285.42L63.53 285.09L63.12 284.76L62.68 284.42L62.21 284.09L61.72 283.76L61.21 283.43L60.67 283.1L60.35 282.92L60.04 282.73L59.73 282.55L59.44 282.37L59.16 282.2L58.89 282.03L58.63 281.86L58.38 281.69L58.14 281.53L57.91 281.37L57.69 281.21L57.48 281.05L57.28 280.9L57.09 280.75L56.91 280.6L56.74 280.46L56.58 280.31L56.42 280.17L56.28 280.03L56.14 279.89L56.02 279.75L55.9 279.62L55.79 279.49L55.7 279.35L55.61 279.22L55.52 279.09L55.45 278.97L55.38 278.84L55.33 278.71L55.28 278.59L55.24 278.47L55.2 278.34L55.18 278.22L55.16 278.1L55.15 277.98L55.15 277.86L55.15 277.74L55.17 277.62L55.19 277.5L55.21 277.38L55.25 277.27L55.29 277.14L55.34 276.98L55.4 276.79L55.47 276.57L55.55 276.33L55.63 276.06L55.72 275.77L55.82 275.45L55.93 275.12L56.04 274.75L56.16 274.37L56.28 273.96L56.42 273.54L56.55 273.09L56.7 272.62L56.85 272.14L57 271.64L57.16 271.12L57.33 270.58L57.5 270.03L57.67 269.46L57.85 268.88L58.03 268.28L58.22 267.67L58.41 267.05L58.6 266.42L58.8 265.77L59 265.12L59.2 264.45L59.41 263.77L59.62 263.09L59.83 262.4L60.04 261.7L60.25 260.99L60.47 260.28L60.68 259.57L60.9 258.85L61.12 258.12L61.34 257.39L61.62 256.46L61.9 255.55L62.17 254.65L62.45 253.76L62.72 252.89L63 252.03L63.27 251.19L63.54 250.37L63.81 249.55L64.08 248.75L64.35 247.96L64.63 247.19L64.9 246.43L65.17 245.68L65.44 244.94L65.71 244.21L65.98 243.5L66.25 242.8L66.53 242.1L66.8 241.42L67.08 240.75L67.35 240.09L67.63 239.44L67.91 238.79L68.19 238.16L68.47 237.53L68.76 236.92L69.04 236.31L69.33 235.71L69.62 235.12L69.91 234.53L70.21 233.95L70.5 233.38L70.8 232.82L71.11 232.26L71.41 231.71L71.72 231.16L72.03 230.62L72.35 230.08L72.66 229.55L78.79 219.42L84.79 175.33L85.03 173.51L85.26 171.72L85.5 169.94L85.73 168.18L85.95 166.44L86.17 164.73L86.39 163.04L86.61 161.37L86.82 159.73L87.03 158.11L87.23 156.53L87.43 154.97L87.62 153.45L87.81 151.97L87.99 150.51L88.17 149.1L88.34 147.72L88.51 146.38L88.67 145.09L88.82 143.83L88.96 142.62L89.1 141.46L89.24 140.35L89.36 139.28L89.48 138.26L89.59 137.29L89.7 136.38L89.79 135.52L89.88 134.72L89.96 133.98L90.03 133.29L90.09 132.67L90.14 132.1L90.19 131.61L90.22 131.17L90.25 130.8L90.26 130.5L90.27 130.27L90.27 130.12L90.25 130.03L90.22 130.01L90.18 130.07L90.12 130.2Z" id="a2cNq6AqE"></path></defs><g><g><g><use xlink:href="#a2cNq6AqE" opacity="1" fill="#2f5962" fill-opacity="1"></use><g><use xlink:href="#a2cNq6AqE" opacity="1" fill-opacity="0" stroke="#000000" stroke-width="1" stroke-opacity="0"></use></g></g></g></g></svg>