<?xml version="1.0" encoding="UTF-8" standalone="no"?>
<!DOCTYPE svg PUBLIC "-//W3C//DTD SVG 1.1//EN" "http://www.w3.org/Graphics/SVG/1.1/DTD/svg11.dtd">
<svg version="1.1" xmlns="http://www.w3.org/2000/svg" xmlns:xlink="http://www.w3.org/1999/xlink" preserveAspectRatio="xMidYMid meet" viewBox="0 0 535 289" width="535" height="289"><defs><path d="M145.15 20.95C188.14 27.35 212.02 30.9 216.8 31.61C286.31 41.86 288.31 42.26 288.71 45.06C288.74 45.26 288.87 46.28 289.11 48.12L267.4 48.12L245.56 48.12L240.64 58.24L235.57 68.23L243.17 76.89L250.62 85.41L371.01 85.41L491.39 85.41L491.39 77.42L491.39 69.43L480.74 64.1L470.08 58.77L438.26 58.77L406.3 58.77C404.22 51.74 403.06 47.84 402.83 47.06C394.31 18.42 396.31 22.02 382.19 13.23C381.35 12.72 377.13 10.14 369.54 5.51L347.17 5.51L324.8 5.51L315.08 10.83L305.22 16.29C258.48 13.02 232.51 11.2 227.32 10.83C184.57 7.9 148.48 5.51 147.28 5.51C145.55 5.51 145.15 6.97 145.15 13.23C145.15 14.26 145.15 16.84 145.15 20.95Z" id="akp741xcc"></path><path d="M182.44 101.52L182.44 109.38L182.44 117.37C188.27 120.25 191.51 121.84 192.16 122.16C197.36 124.83 218.93 138.01 239.97 151.59C242.52 153.23 255.26 161.39 278.19 176.1C305.2 175.3 320.2 174.85 323.2 174.76C347.97 173.97 392.45 172.63 422.01 171.97C425.6 171.88 443.53 171.44 475.81 170.64L504.84 149.6L533.87 128.69C533.87 125.09 533.87 123.1 533.87 122.7C534 117.37 533.34 115.9 528.94 111.64C524.02 106.85 523.75 106.72 513.23 106.72C512.52 106.72 508.97 106.72 502.58 106.72L497.38 101.39L492.19 96.06C420.92 96.06 381.32 96.06 373.4 96.06C259.81 96.06 254.09 95.93 241.7 93.4C233.04 91.67 223.59 90.74 213.2 90.74C212.15 90.74 206.92 90.74 197.49 90.74L190.03 96.2L182.44 101.52Z" id="a1nsICKaFe"></path><path d="M91.09 203.66C69.59 202.14 57.65 201.3 55.26 201.13C35.42 199.8 16.11 198.6 12.38 198.6C5.59 198.6 5.33 198.73 5.33 202.33C5.33 202.57 5.33 203.77 5.33 205.93C26.26 209.04 37.89 210.77 40.22 211.12C82.03 217.25 82.56 217.25 82.56 218.71C82.56 219.38 77.5 219.91 71.25 219.91C70.49 219.91 66.72 219.91 59.93 219.91L57 225.9L54.07 231.89L57.93 235.89L61.79 239.88L126.11 239.88L190.43 239.88C190.43 237.49 190.43 236.15 190.43 235.89C190.43 229.23 184.97 227.37 163.26 226.57C162.03 226.52 155.86 226.3 144.75 225.9C143.08 220.07 142.14 216.83 141.96 216.18C139.29 206.72 138.89 206.33 131.84 201.93C125.05 197.67 123.71 197.27 113.86 197.4C105.34 197.4 102.01 198.07 97.21 200.6C96.4 201.01 94.35 202.03 91.09 203.66Z" id="a67RKt3Z5c"></path><path d="M25.3 253.33C25.3 256.53 26.23 257.6 30.9 259.99C34.09 261.59 45.54 268.65 56.6 275.57C57.93 276.42 64.59 280.63 76.57 288.22L129.44 286.76L182.17 285.43C191.44 278.8 196.59 275.11 197.62 274.37C210.67 265.05 213.07 262.79 213.07 259.86C213.07 254.67 209.21 251.87 202.15 251.87C197.89 251.87 195.49 251.07 193.76 249.34C191.63 246.81 188.7 246.68 124.65 246.01C88.02 245.61 52.2 244.94 45.28 244.54C33.82 243.88 32.23 244.15 29.03 246.68C26.5 248.54 25.3 250.67 25.3 253.33Z" id="buiiYuM3e"></path></defs><g><g><g><use xlink:href="#akp741xcc" opacity="1" fill="#2f5962" fill-opacity="1"></use><g><use xlink:href="#akp741xcc" opacity="1" fill-opacity="0" stroke="#000000" stroke-width="1" stroke-opacity="0"></use></g></g><g><use xlink:href="#a1nsICKaFe" opacity="1" fill="#2f5962" fill-opacity="1"></use><g><use xlink:href="#a1nsICKaFe" opacity="1" fill-opacity="0" stroke="#000000" stroke-width="1" stroke-opacity="0"></use></g></g><g><use xlink:href="#a67RKt3Z5c" opacity="1" fill="#2f5962" fill-opacity="1"></use><g><use xlink:href="#a67RKt3Z5c" opacity="1" fill-opacity="0" stroke="#000000" stroke-width="1" stroke-opacity="0"></use></g></g><g><use xlink:href="#buiiYuM3e" opacity="1" fill="#2f5962" fill-opacity="1"></use><g><use xlink:href="#buiiYuM3e" opacity="1" fill-opacity="0" stroke="#000000" stroke-width="1" stroke-opacity="0"></use></g></g></g></g></svg>