<?xml version="1.0" encoding="UTF-8" standalone="no"?>
<!DOCTYPE svg PUBLIC "-//W3C//DTD SVG 1.1//EN" "http://www.w3.org/Graphics/SVG/1.1/DTD/svg11.dtd">
<svg version="1.1" xmlns="http://www.w3.org/2000/svg" xmlns:xlink="http://www.w3.org/1999/xlink" preserveAspectRatio="xMidYMid meet" viewBox="0 0 230 455" width="230" height="455"><defs><path d="M105.68 18.46C105.9 18.71 107.01 20 109.01 22.32C107.41 29.43 106.52 33.38 106.35 34.17C100.89 59.2 97.16 90.08 85.04 207.78C74.13 314.69 70 346.24 65.74 356.49C65.61 356.79 64.99 358.25 63.88 360.89L47.9 360.89L31.79 360.89L31.79 379.53L31.79 398.17L115 398.17L198.21 398.17L198.21 379.53L198.21 360.89C189.1 360.89 184.05 360.89 183.03 360.89C172.52 360.89 167.46 360.35 166.52 359.29C161.07 352.5 155.74 316.95 143.62 204.45C132.31 100.07 126.45 55.34 120.86 32.84C118.33 22.32 118.33 22.18 120.99 19.39C122.46 17.92 124.05 14.73 124.45 12.33C125.12 8.87 124.59 7.54 121.26 4.08C115.8 -1.38 110.47 -1.38 105.81 4.21C101.42 9.27 101.42 13.4 105.68 18.46Z" id="dmAkHVfNa"></path><path d="M0 454L114.5 454L229 454L229 430.7L229 407.4L114.5 407.4L0 407.4L0 430.7L0 454Z" id="cdo9Svxpb"></path></defs><g><g><g><use xlink:href="#dmAkHVfNa" opacity="1" fill="#2f5962" fill-opacity="1"></use><g><use xlink:href="#dmAkHVfNa" opacity="1" fill-opacity="0" stroke="#000000" stroke-width="1" stroke-opacity="0"></use></g></g><g><use xlink:href="#cdo9Svxpb" opacity="1" fill="#2f5962" fill-opacity="1"></use><g><use xlink:href="#cdo9Svxpb" opacity="1" fill-opacity="0" stroke="#000000" stroke-width="1" stroke-opacity="0"></use></g></g></g></g></svg>