<?xml version="1.0" encoding="UTF-8" standalone="no"?>
<!DOCTYPE svg PUBLIC "-//W3C//DTD SVG 1.1//EN" "http://www.w3.org/Graphics/SVG/1.1/DTD/svg11.dtd">
<svg version="1.1" xmlns="http://www.w3.org/2000/svg" xmlns:xlink="http://www.w3.org/1999/xlink" preserveAspectRatio="xMidYMid meet" viewBox="0 0 695 197" width="695" height="197"><defs><path d="M640.65 142.69L586.47 143.09L584.08 156.4L583.99 156.95L583.9 157.5L583.8 158.06L583.71 158.61L583.62 159.17L583.53 159.72L583.43 160.27L583.34 160.82L583.24 161.37L583.15 161.92L583.06 162.46L582.96 163L582.87 163.53L582.78 164.06L582.69 164.58L582.6 165.1L582.51 165.61L582.42 166.11L582.33 166.6L582.25 167.08L582.16 167.56L582.08 168.02L582 168.48L581.92 168.92L581.85 169.35L581.77 169.77L581.7 170.17L581.63 170.56L581.56 170.94L581.5 171.3L581.43 171.65L581.32 172.29L581.26 172.59L581.21 172.87L581.17 173.13L581.12 173.37L581.08 173.59L581.05 173.79L581.02 173.97L580.22 178.36L370.04 178.36L370.04 197L0 197L0 167.72L10.65 167.72L10.65 157.07L114.47 157.07L114.47 145.09L41.26 145.09L41.26 26.62L164.79 26.62L288.18 26.49L316.13 0.13L505.54 0L694.82 0L694.82 142.43L640.65 142.69ZM206.57 125.12L204.71 125.12L202.87 125.13L201.04 125.13L199.24 125.14L197.47 125.15L195.72 125.16L193.99 125.17L192.3 125.18L190.63 125.19L189 125.2L187.39 125.22L185.83 125.23L184.29 125.25L182.8 125.27L181.34 125.29L179.93 125.31L178.55 125.33L177.22 125.35L175.94 125.37L174.7 125.39L173.5 125.42L172.36 125.44L171.27 125.47L170.23 125.49L169.25 125.52L168.32 125.54L167.45 125.57L166.63 125.6L165.88 125.63L165.19 125.66L164.56 125.68L164 125.71L163.5 125.74L163.07 125.77L162.71 125.8L162.42 125.83L162.2 125.86L162.06 125.89L161.99 125.92L161.82 126.11L161.68 126.29L161.57 126.46L161.49 126.62L161.45 126.78L161.45 126.94L161.49 127.08L161.56 127.22L161.68 127.36L161.83 127.49L162.03 127.61L162.27 127.73L162.55 127.84L162.88 127.94L163.26 128.04L163.69 128.14L164.16 128.23L164.68 128.31L165.26 128.39L165.89 128.47L166.57 128.54L167.3 128.6L168.09 128.66L168.94 128.72L169.85 128.77L170.81 128.82L171.84 128.86L172.92 128.9L174.07 128.94L175.28 128.97L176.56 129L177.9 129.03L179.31 129.05L180.79 129.07L182.33 129.08L183.95 129.09L185.64 129.1L187.4 129.11L189.23 129.11L191.14 129.11L219.63 129.11L219.63 177.03L285.65 177.03L290.19 177.03L294.52 177.03L298.65 177.03L302.57 177.03L306.29 177.02L309.82 177.02L313.16 177.01L316.32 177L319.3 176.99L322.11 176.98L324.75 176.96L327.23 176.94L329.55 176.92L331.71 176.9L333.74 176.87L335.61 176.84L337.35 176.81L338.96 176.77L340.45 176.73L341.8 176.68L343.05 176.63L344.18 176.58L345.2 176.52L346.12 176.46L346.95 176.39L347.68 176.32L348.33 176.24L348.89 176.15L349.38 176.06L349.8 175.97L350.15 175.86L350.44 175.76L350.67 175.64L350.85 175.52L350.98 175.39L351.08 175.25L351.13 175.11L351.16 174.96L351.16 174.8L351.14 174.64L351.11 174.54L351.07 174.43L351.02 174.32L350.96 174.2L350.88 174.09L350.79 173.96L350.69 173.84L350.58 173.71L350.46 173.57L350.32 173.44L350.18 173.3L350.02 173.15L349.86 173.01L349.68 172.86L349.49 172.71L349.29 172.55L349.09 172.39L348.87 172.23L348.65 172.07L348.41 171.91L348.17 171.74L347.91 171.58L347.65 171.41L347.38 171.24L347.1 171.06L346.82 170.89L346.52 170.71L346.22 170.54L345.91 170.36L345.6 170.18L345.28 170L344.95 169.82L344.61 169.64L344.27 169.46L343.92 169.28L343.56 169.1L343.2 168.92L342.84 168.74L342.46 168.56L342.09 168.38L341.82 168.26L341.51 168.12L341.15 167.95L340.74 167.76L340.28 167.55L339.78 167.31L339.22 167.05L338.62 166.76L337.97 166.45L337.27 166.11L336.52 165.75L335.73 165.37L334.88 164.96L333.99 164.53L333.05 164.07L332.06 163.59L331.02 163.09L329.93 162.56L328.8 162L327.61 161.43L326.38 160.83L325.1 160.2L323.77 159.55L322.39 158.88L320.97 158.18L319.49 157.46L317.97 156.71L316.4 155.94L314.78 155.15L313.11 154.33L311.4 153.49L309.63 152.62L307.82 151.73L305.96 150.82L304.05 149.88L302.09 148.91L300.08 147.93L298.03 146.92L295.92 145.88L293.77 144.82L253.97 125.12L208.45 125.12L206.57 125.12ZM324.12 18.77L310.14 31.95L296.3 45.26L59.9 45.26L59.9 85.06L59.9 86.7L59.9 88.32L59.91 89.93L59.91 91.52L59.92 93.09L59.93 94.64L59.93 96.17L59.95 97.67L59.96 99.15L59.97 100.61L59.99 102.03L60 103.43L60.02 104.8L60.04 106.14L60.06 107.44L60.08 108.71L60.1 109.95L60.13 111.14L60.15 112.3L60.18 113.42L60.21 114.5L60.24 115.54L60.27 116.54L60.3 117.49L60.33 118.39L60.37 119.25L60.4 120.06L60.44 120.81L60.48 121.52L60.52 122.17L60.56 122.77L60.6 123.32L60.64 123.81L60.68 124.24L60.73 124.61L60.77 124.92L60.82 125.16L60.87 125.35L60.91 125.47L60.96 125.52L61.03 125.55L61.13 125.58L61.28 125.6L61.47 125.63L61.69 125.65L61.96 125.67L62.27 125.68L62.61 125.7L62.99 125.71L63.41 125.72L63.86 125.74L64.35 125.74L64.87 125.75L65.42 125.76L66.01 125.76L66.62 125.76L67.26 125.76L67.94 125.76L68.64 125.76L69.37 125.75L70.12 125.75L70.9 125.74L71.7 125.73L72.53 125.72L73.38 125.71L74.25 125.7L75.15 125.68L76.06 125.67L76.99 125.65L77.94 125.63L78.91 125.61L79.89 125.59L80.89 125.57L81.91 125.55L82.93 125.52L83.98 125.5L85.03 125.47L86.09 125.45L87.17 125.42L88.25 125.39L114.47 124.72L114.47 58.57L219.36 58.57L324.12 58.7L320.13 62.16L319.95 62.32L319.73 62.51L319.48 62.73L319.19 62.98L318.87 63.26L318.52 63.56L318.13 63.9L317.71 64.27L317.26 64.66L316.78 65.07L316.28 65.51L315.74 65.98L315.18 66.47L314.59 66.98L313.98 67.51L312.68 68.64L312 69.24L311.3 69.85L310.57 70.48L309.83 71.13L309.07 71.79L308.29 72.47L307.49 73.16L306.68 73.87L305.85 74.59L305.01 75.32L304.16 76.07L303.29 76.82L302.42 77.59L301.53 78.36L300.63 79.14L299.73 79.93L298.82 80.72L297.9 81.52L296.97 82.33L296.04 83.14L295.11 83.95L294.17 84.77L293.24 85.59L292.29 86.4L291.36 87.21L290.43 88.01L289.52 88.81L288.62 89.59L287.73 90.37L286.85 91.13L285.99 91.89L285.14 92.63L284.3 93.36L283.49 94.08L282.69 94.79L281.9 95.48L281.14 96.15L280.39 96.81L279.67 97.46L278.96 98.09L278.28 98.7L277.62 99.29L276.98 99.86L276.37 100.42L275.78 100.95L275.21 101.47L274.67 101.96L274.16 102.43L273.68 102.87L273.22 103.3L272.79 103.7L272.4 104.07L272.03 104.42L271.69 104.74L271.39 105.04L271.12 105.31L270.88 105.55L270.68 105.76L270.51 105.94L270.38 106.09L270.29 106.21L270.23 106.3L270.21 106.35L270.22 106.39L270.27 106.44L270.34 106.51L270.43 106.59L270.55 106.68L270.7 106.78L270.88 106.9L271.07 107.03L271.3 107.17L271.54 107.32L271.81 107.49L272.1 107.66L272.42 107.85L272.75 108.04L273.11 108.25L273.48 108.46L273.88 108.69L274.3 108.92L274.73 109.16L275.18 109.41L275.65 109.67L276.14 109.94L276.65 110.21L277.17 110.49L277.7 110.78L278.25 111.07L278.82 111.37L279.4 111.68L279.99 111.99L280.6 112.31L281.22 112.63L281.85 112.95L282.49 113.28L283.14 113.61L283.8 113.95L284.47 114.29L285.15 114.63L285.84 114.98L286.54 115.32L287.25 115.67L287.96 116.03L288.69 116.39L289.44 116.77L290.22 117.17L291.01 117.57L291.82 117.98L292.65 118.4L293.49 118.83L294.35 119.27L295.22 119.72L296.1 120.17L297 120.63L297.9 121.1L298.81 121.57L299.73 122.05L300.66 122.53L301.59 123.02L302.52 123.5L303.46 124L304.4 124.49L305.34 124.98L306.28 125.48L307.22 125.98L308.16 126.47L309.09 126.97L310.02 127.46L310.94 127.95L311.86 128.44L312.76 128.93L313.66 129.41L314.54 129.89L315.42 130.36L316.28 130.83L317.13 131.29L317.96 131.75L318.78 132.2L319.58 132.64L320.36 133.07L321.12 133.49L321.86 133.91L322.57 134.31L323.28 134.72L323.99 135.12L324.68 135.51L325.37 135.9L326.06 136.28L326.73 136.66L327.39 137.03L328.05 137.39L328.69 137.75L329.32 138.1L329.95 138.44L330.55 138.78L331.15 139.1L331.73 139.42L332.3 139.73L332.85 140.03L333.39 140.32L333.91 140.61L334.42 140.88L334.91 141.14L335.38 141.39L335.83 141.63L336.26 141.86L336.67 142.08L337.07 142.29L337.44 142.48L337.79 142.66L338.12 142.83L338.42 142.99L338.7 143.13L338.96 143.26L339.19 143.37L339.4 143.47L339.59 143.56L339.74 143.63L339.87 143.68L339.97 143.72L340.05 143.75L340.09 143.76L340.12 143.75L340.15 143.73L340.2 143.71L340.26 143.67L340.32 143.62L340.4 143.56L340.49 143.49L340.58 143.41L340.69 143.32L340.8 143.22L340.92 143.11L341.05 142.99L341.19 142.87L341.33 142.73L341.49 142.59L341.65 142.44L341.81 142.28L341.99 142.12L342.17 141.94L342.35 141.76L342.55 141.57L342.75 141.38L342.95 141.18L343.16 140.97L343.37 140.75L343.59 140.53L343.81 140.31L344.04 140.08L344.27 139.84L344.51 139.6L344.75 139.36L344.99 139.11L345.23 138.85L345.48 138.59L345.73 138.33L345.99 138.06L346.24 137.79L346.5 137.52L346.75 137.25L347.01 136.97L347.8 136.1L348.53 135.29L349.21 134.51L349.85 133.78L350.47 133.1L351.08 132.45L351.69 131.84L352.33 131.28L352.99 130.74L353.71 130.25L354.49 129.79L355.34 129.36L356.28 128.96L357.33 128.59L358.49 128.25L359.78 127.94L361.22 127.65L362.82 127.39L364.59 127.15L366.55 126.94L368.71 126.74L371.08 126.56L373.68 126.4L376.53 126.25L379.63 126.12L383.01 126.01L386.67 125.9L390.63 125.81L394.9 125.72L399.5 125.64L404.44 125.57L409.73 125.51L415.4 125.44L421.44 125.38L427.89 125.32L434.74 125.26L442.02 125.2L449.74 125.14L457.91 125.06L466.54 124.99L470.91 124.95L475.32 124.91L479.76 124.87L484.24 124.83L488.74 124.79L493.26 124.75L497.8 124.71L502.35 124.67L506.91 124.64L511.47 124.6L516.02 124.56L520.56 124.52L525.09 124.49L529.61 124.45L534.09 124.42L538.55 124.38L542.97 124.35L547.35 124.32L551.69 124.29L555.98 124.26L560.21 124.23L564.38 124.2L568.49 124.17L572.52 124.15L576.48 124.12L580.36 124.1L584.15 124.07L587.86 124.05L591.46 124.03L594.97 124.02L598.37 124L601.66 123.98L604.83 123.97L607.88 123.96L610.8 123.95L613.6 123.94L616.25 123.93L618.76 123.93L621.13 123.92L623.35 123.92L674.86 123.79L674.86 18.64L499.55 18.64L324.12 18.77Z" id="d2sHi0xums"></path></defs><g><g><g><use xlink:href="#d2sHi0xums" opacity="1" fill="#2f5962" fill-opacity="1"></use><g><use xlink:href="#d2sHi0xums" opacity="1" fill-opacity="0" stroke="#000000" stroke-width="1" stroke-opacity="0"></use></g></g></g></g></svg>