<?xml version="1.0" standalone="no"?><!DOCTYPE svg PUBLIC "-//W3C//DTD SVG 1.1//EN" "http://www.w3.org/Graphics/SVG/1.1/DTD/svg11.dtd"><svg width="293" height="99" viewBox="0 0 293 99" version="1.1" xmlns="http://www.w3.org/2000/svg" xmlns:xlink="http://www.w3.org/1999/xlink" xml:space="preserve" style="fill-rule:evenodd;clip-rule:evenodd;stroke-linejoin:round;stroke-miterlimit:1.41421;"><path id="hero_big" d="M61.304,23.477c2.89,0.072 3.271,2.106 3.619,3.364c0.002,0.299 0.005,0.629 0.006,0.946c0.002,0.232 0.003,0.459 0.003,0.666c-0.117,0.697 -0.68,1.658 -1.075,1.883c-0.004,0.008 0.141,0.274 0.135,0.268c0.232,1.226 2.601,0.554 3.09,1.748c0.005,-0.012 0.403,0 0.403,0c0,0 -0.402,-15.723 -0.403,-15.731c-0.016,-0.377 0.077,-0.75 0.269,-1.075l0,-6.185l0.134,0.537c0,0 0.141,5.656 0.134,5.648c0.269,0.021 0.404,1.075 0.404,1.075c0,0 0.714,16.03 0.671,16c1.231,0.027 1.677,0.328 2.419,0.806c-0.012,0.038 0.028,0.366 0,0.403c-0.36,0.346 -1.606,0.551 -1.612,0.539c-0.006,-0.006 2.119,13.601 2.119,13.605c0.185,1.236 -0.545,0.946 -0.788,1.571c-0.134,0.349 -0.138,0.999 0.012,1.495c0.219,1.191 -0.672,1.211 -0.672,1.211c0,0 2.011,13.18 2.016,13.176c0.003,0.016 0.011,1.07 0,1.076c0.013,0.238 -0.531,0.801 -0.538,0.806c-0.373,0.594 -2.209,0.223 -2.821,0.941c-0.01,-0.004 -0.528,3.366 -0.538,3.362c-0.027,0.579 -0.87,0.764 -1.075,1.076c-0.012,-0.005 -0.403,3.898 -0.403,3.898l1.079,1.48l224.662,0l0,1.612l-248.31,0l-0.003,-15.46c0,0 -0.892,-5.761 -6.584,-6.454c-0.491,-0.06 -0.987,-0.06 -1.478,0c-6.262,1.24 -6.515,6.415 -6.515,6.415l-0.066,15.499l-29.561,0c0,0 50.522,-76.786 50.519,-76.771c0.535,-0.862 2.253,-2.515 4.3,-2.823c0.62,-0.114 1.255,-0.115 1.876,-0.004c1.54,0.266 3.98,1.283 4.572,5.381c-0.008,0.013 0.012,18.002 0,18.016Z" style="fill:#404041;"/><path id="txt" d="M291.74,93.366c-0.222,-0.272 -0.509,-0.485 -0.834,-0.618c-0.196,-0.079 -0.405,-0.119 -0.616,-0.116c-0.158,-0.002 -0.315,0.026 -0.462,0.084c-0.126,0.05 -0.241,0.126 -0.337,0.223c-0.091,0.093 -0.162,0.203 -0.208,0.325c-0.048,0.126 -0.073,0.261 -0.072,0.396c-0.004,0.174 0.039,0.345 0.124,0.496c0.087,0.148 0.197,0.28 0.326,0.392c0.144,0.126 0.298,0.238 0.461,0.336c0.174,0.104 0.35,0.209 0.53,0.315c0.179,0.106 0.355,0.219 0.528,0.34c0.169,0.118 0.324,0.256 0.462,0.409c0.135,0.154 0.245,0.329 0.325,0.518c0.087,0.212 0.13,0.44 0.125,0.669c0.008,0.296 -0.051,0.591 -0.173,0.861c-0.201,0.434 -0.571,0.768 -1.023,0.923c-0.194,0.071 -0.399,0.108 -0.606,0.111c-0.182,0 -0.365,-0.014 -0.545,-0.043c-0.157,-0.026 -0.311,-0.062 -0.462,-0.108c-0.122,-0.036 -0.242,-0.081 -0.358,-0.133c-0.081,-0.035 -0.159,-0.075 -0.234,-0.121c-0.057,-0.204 -0.111,-0.395 -0.161,-0.571c-0.024,-0.078 -0.046,-0.153 -0.067,-0.228c-0.022,-0.076 -0.04,-0.147 -0.058,-0.214c-0.017,-0.067 -0.032,-0.128 -0.046,-0.181c-0.013,-0.054 -0.024,-0.096 -0.032,-0.123l0.047,-0.01c0.126,0.247 0.285,0.476 0.473,0.681c0.086,0.089 0.176,0.173 0.272,0.251c0.102,0.084 0.214,0.158 0.331,0.219c0.125,0.065 0.257,0.116 0.393,0.153c0.147,0.04 0.3,0.059 0.453,0.058c0.167,0.001 0.332,-0.029 0.487,-0.09c0.149,-0.056 0.284,-0.143 0.397,-0.254c0.113,-0.112 0.203,-0.245 0.265,-0.392c0.067,-0.162 0.101,-0.336 0.099,-0.511c0.003,-0.183 -0.039,-0.365 -0.122,-0.528c-0.083,-0.156 -0.191,-0.297 -0.32,-0.417c-0.139,-0.129 -0.291,-0.246 -0.453,-0.346c-0.171,-0.105 -0.344,-0.214 -0.523,-0.323c-0.178,-0.109 -0.353,-0.227 -0.522,-0.352c-0.168,-0.123 -0.32,-0.266 -0.454,-0.424c-0.136,-0.164 -0.244,-0.348 -0.32,-0.546c-0.085,-0.228 -0.126,-0.47 -0.121,-0.713c-0.003,-0.213 0.042,-0.423 0.133,-0.616c0.086,-0.179 0.206,-0.34 0.355,-0.473c0.149,-0.134 0.324,-0.238 0.513,-0.306c0.197,-0.072 0.405,-0.107 0.615,-0.106c0.253,-0.002 0.505,0.033 0.747,0.103c0.2,0.058 0.396,0.129 0.586,0.214l0.341,1.063l-0.04,0.023c-0.067,-0.105 -0.14,-0.205 -0.219,-0.3ZM277.044,98.648c-0.01,0.109 -0.026,0.217 -0.048,0.324l-4.255,0l0,-0.047c0.151,0.005 0.299,-0.049 0.412,-0.149c0.115,-0.112 0.175,-0.268 0.165,-0.428l0,-5.404c0.011,-0.16 -0.05,-0.316 -0.165,-0.427c-0.113,-0.102 -0.261,-0.156 -0.412,-0.151l0,-0.045l3.961,0c0.008,0.088 0.013,0.188 0.017,0.299c0.004,0.112 0.006,0.217 0.006,0.312l0,0.336l-0.046,0c0.005,-0.152 -0.048,-0.3 -0.148,-0.414c-0.11,-0.114 -0.266,-0.174 -0.425,-0.164l-2.049,0l0,2.835l1.871,0c0.056,0.002 0.112,-0.008 0.164,-0.029c0.04,-0.016 0.077,-0.041 0.107,-0.073c0.026,-0.027 0.045,-0.059 0.058,-0.094c0.011,-0.032 0.017,-0.066 0.017,-0.099l0.046,0l0,0.838l-0.046,0c0,-0.034 -0.006,-0.067 -0.017,-0.099c-0.013,-0.035 -0.032,-0.067 -0.058,-0.094c-0.03,-0.032 -0.067,-0.057 -0.107,-0.073c-0.052,-0.021 -0.108,-0.031 -0.164,-0.03l-1.871,0l0,2.218c-0.01,0.167 0.051,0.33 0.167,0.451c0.123,0.112 0.286,0.17 0.451,0.161l1.564,0c0.017,0.001 0.033,0.002 0.05,0.002c0.422,0 0.77,-0.348 0.77,-0.77l0.047,0c-0.008,0.15 -0.017,0.297 -0.029,0.439c-0.008,0.124 -0.019,0.249 -0.033,0.375l0,0ZM260.492,98.1c-0.308,0.296 -0.671,0.53 -1.069,0.686c-0.405,0.163 -0.838,0.245 -1.275,0.244c-0.287,0 -0.574,-0.037 -0.852,-0.111c-0.276,-0.071 -0.542,-0.178 -0.791,-0.317c-0.249,-0.139 -0.48,-0.309 -0.687,-0.505c-0.21,-0.199 -0.393,-0.425 -0.542,-0.673c-0.155,-0.257 -0.275,-0.534 -0.355,-0.822c-0.087,-0.311 -0.13,-0.633 -0.128,-0.956c-0.002,-0.314 0.042,-0.626 0.13,-0.927c0.084,-0.287 0.205,-0.562 0.361,-0.817c0.153,-0.249 0.338,-0.477 0.549,-0.678c0.208,-0.2 0.44,-0.373 0.689,-0.516c0.247,-0.142 0.511,-0.253 0.785,-0.33c0.274,-0.076 0.557,-0.115 0.841,-0.115c0.872,0.001 1.71,0.339 2.338,0.943c0.313,0.306 0.564,0.668 0.739,1.068c0.188,0.433 0.283,0.9 0.277,1.372c0.007,0.476 -0.087,0.948 -0.274,1.385c-0.173,0.401 -0.423,0.764 -0.736,1.069l0,0ZM260.575,94.61c-0.116,-0.367 -0.3,-0.71 -0.542,-1.01c-0.238,-0.292 -0.536,-0.529 -0.874,-0.694c-0.37,-0.175 -0.775,-0.263 -1.184,-0.256c-0.3,0.002 -0.596,0.065 -0.869,0.187c-0.297,0.13 -0.564,0.32 -0.785,0.557c-0.247,0.267 -0.44,0.579 -0.57,0.918c-0.153,0.408 -0.227,0.841 -0.219,1.276c-0.002,0.404 0.07,0.804 0.214,1.181c0.134,0.358 0.333,0.689 0.586,0.976c0.246,0.276 0.544,0.502 0.877,0.664c0.337,0.164 0.708,0.248 1.083,0.246c0.334,0.002 0.665,-0.066 0.97,-0.201c0.298,-0.131 0.565,-0.325 0.782,-0.568c0.231,-0.262 0.409,-0.566 0.526,-0.895c0.133,-0.376 0.198,-0.773 0.193,-1.172c0.003,-0.41 -0.061,-0.818 -0.188,-1.209l0,0ZM243.951,98.853c-0.228,-0.058 -0.449,-0.141 -0.658,-0.248c-0.214,-0.11 -0.416,-0.242 -0.601,-0.395c-0.208,-0.173 -0.403,-0.359 -0.586,-0.558c-0.199,-0.213 -0.405,-0.458 -0.618,-0.733c-0.214,-0.274 -0.442,-0.583 -0.684,-0.926c-0.049,0.007 -0.098,0.01 -0.148,0.011l-0.805,0l0,2.297c-0.002,0.101 0.015,0.202 0.052,0.296c0.03,0.073 0.076,0.139 0.135,0.192c0.054,0.047 0.117,0.083 0.186,0.105c0.066,0.021 0.136,0.031 0.205,0.031l0,0.047l-1.894,0l0,-0.047c0.07,0 0.14,-0.01 0.208,-0.031c0.068,-0.021 0.131,-0.057 0.184,-0.105c0.057,-0.052 0.102,-0.116 0.133,-0.187c0.037,-0.087 0.055,-0.182 0.052,-0.277l0,-5.376c0.003,-0.089 -0.015,-0.178 -0.052,-0.259c-0.032,-0.069 -0.077,-0.131 -0.133,-0.183c-0.054,-0.047 -0.116,-0.083 -0.184,-0.106c-0.067,-0.022 -0.137,-0.034 -0.208,-0.035l0,-0.045l2.015,0c0.304,-0.005 0.606,0.044 0.892,0.143c0.248,0.087 0.476,0.222 0.672,0.397c0.183,0.163 0.328,0.364 0.425,0.588c0.236,0.558 0.187,1.197 -0.133,1.712c-0.198,0.294 -0.481,0.519 -0.812,0.646c0.216,0.341 0.454,0.668 0.711,0.979c0.262,0.321 0.54,0.629 0.834,0.921c0.266,0.267 0.547,0.517 0.843,0.75c0.226,0.185 0.473,0.342 0.736,0.468l-0.017,0.047c-0.253,-0.017 -0.504,-0.056 -0.75,-0.119l0,0ZM241.828,94.832c0.081,-0.196 0.122,-0.406 0.12,-0.618c0.002,-0.215 -0.042,-0.427 -0.128,-0.624c-0.082,-0.184 -0.203,-0.349 -0.355,-0.482c-0.159,-0.136 -0.342,-0.241 -0.54,-0.309c-0.221,-0.075 -0.453,-0.112 -0.687,-0.109l-0.387,0l0,3.042l0.156,0c0.291,0.009 0.58,-0.026 0.86,-0.103c0.221,-0.062 0.426,-0.168 0.604,-0.312c0.156,-0.13 0.279,-0.297 0.357,-0.485l0,0ZM227.06,98.648c-0.011,0.109 -0.027,0.217 -0.049,0.324l-4.255,0l0,-0.047c0.151,0.005 0.299,-0.049 0.412,-0.149c0.115,-0.112 0.175,-0.268 0.166,-0.428l0,-5.404c0.01,-0.16 -0.051,-0.316 -0.166,-0.427c-0.112,-0.102 -0.26,-0.156 -0.412,-0.151l0,-0.045l3.961,0c0.008,0.088 0.014,0.188 0.018,0.299c0.004,0.112 0.005,0.217 0.005,0.312l0,0.336l-0.046,0c0.005,-0.152 -0.048,-0.3 -0.148,-0.414c-0.11,-0.114 -0.266,-0.174 -0.424,-0.164l-2.049,0l0,2.835l1.87,0c0.056,0.002 0.112,-0.008 0.164,-0.029c0.041,-0.016 0.077,-0.041 0.108,-0.073c0.025,-0.027 0.045,-0.059 0.057,-0.094c0.012,-0.032 0.018,-0.066 0.018,-0.099l0.045,0l0,0.838l-0.045,0c0,-0.034 -0.006,-0.067 -0.018,-0.099c-0.012,-0.035 -0.032,-0.067 -0.057,-0.094c-0.031,-0.032 -0.067,-0.057 -0.108,-0.073c-0.052,-0.021 -0.108,-0.031 -0.164,-0.03l-1.87,0l0,2.218c-0.01,0.167 0.05,0.33 0.166,0.451c0.123,0.112 0.286,0.17 0.452,0.161l1.564,0c0.016,0.001 0.033,0.002 0.049,0.002c0.423,0 0.77,-0.348 0.77,-0.77l0.048,0c-0.009,0.15 -0.018,0.297 -0.03,0.439c-0.008,0.124 -0.019,0.249 -0.032,0.375l0,0ZM209.742,98.925c0.126,0.005 0.249,-0.044 0.335,-0.136c0.084,-0.087 0.13,-0.204 0.128,-0.325l0,-2.692l-3.927,0l0,2.692c-0.002,0.121 0.043,0.238 0.127,0.325c0.087,0.092 0.209,0.141 0.336,0.136l0,0.047l-1.664,0l0,-0.047c0.126,0.005 0.248,-0.044 0.335,-0.136c0.083,-0.087 0.129,-0.204 0.127,-0.325l0,-5.636c0.002,-0.121 -0.043,-0.238 -0.127,-0.326c-0.087,-0.091 -0.209,-0.141 -0.335,-0.136l0,-0.045l1.664,0l0,0.045c-0.126,-0.005 -0.249,0.045 -0.336,0.136c-0.084,0.088 -0.129,0.205 -0.127,0.326l0,2.697l3.927,0l0,-2.697c0.002,-0.121 -0.044,-0.238 -0.128,-0.326c-0.087,-0.091 -0.209,-0.141 -0.335,-0.136l0,-0.045l1.664,0l0,0.045c-0.126,-0.005 -0.249,0.045 -0.336,0.136c-0.083,0.088 -0.129,0.205 -0.126,0.326l0,5.636c-0.003,0.121 0.043,0.238 0.126,0.325c0.087,0.092 0.21,0.142 0.336,0.136l0,0.047l-1.664,0l0,-0.047ZM179.921,92.854c-0.111,-0.114 -0.266,-0.174 -0.425,-0.164l-2.049,0l0,2.835l1.871,0c0.056,0.002 0.112,-0.008 0.164,-0.029c0.04,-0.016 0.077,-0.041 0.107,-0.073c0.026,-0.027 0.045,-0.059 0.058,-0.094c0.011,-0.032 0.017,-0.066 0.017,-0.099l0.046,0l0,0.838l-0.046,0c0,-0.034 -0.006,-0.067 -0.017,-0.099c-0.013,-0.035 -0.032,-0.067 -0.058,-0.094c-0.03,-0.032 -0.067,-0.057 -0.107,-0.073c-0.052,-0.021 -0.108,-0.031 -0.164,-0.03l-1.871,0l0,2.576c-0.009,0.16 0.051,0.315 0.164,0.428c0.114,0.1 0.262,0.154 0.414,0.149l0,0.047l-1.895,0l0,-0.047c0.152,0.005 0.3,-0.049 0.413,-0.149c0.115,-0.112 0.175,-0.268 0.165,-0.428l0,-5.404c0.01,-0.16 -0.05,-0.316 -0.165,-0.427c-0.113,-0.102 -0.261,-0.156 -0.413,-0.151l0,-0.045l3.962,0c0.008,0.088 0.013,0.188 0.017,0.299c0.004,0.112 0.005,0.217 0.005,0.312l0,0.336l-0.045,0c0.005,-0.152 -0.048,-0.3 -0.148,-0.414l0,0ZM163.882,98.1c-0.308,0.296 -0.671,0.53 -1.069,0.686c-0.405,0.163 -0.838,0.245 -1.275,0.244c-0.287,0 -0.574,-0.037 -0.852,-0.111c-0.276,-0.071 -0.542,-0.178 -0.791,-0.317c-0.249,-0.139 -0.48,-0.309 -0.687,-0.505c-0.21,-0.199 -0.393,-0.425 -0.543,-0.673c-0.154,-0.257 -0.274,-0.534 -0.354,-0.822c-0.087,-0.311 -0.13,-0.633 -0.128,-0.956c-0.002,-0.314 0.042,-0.626 0.13,-0.927c0.084,-0.287 0.205,-0.562 0.36,-0.817c0.154,-0.249 0.339,-0.477 0.55,-0.678c0.208,-0.2 0.439,-0.373 0.689,-0.516c0.247,-0.142 0.511,-0.253 0.785,-0.33c0.274,-0.076 0.557,-0.115 0.841,-0.115c0.872,0.001 1.71,0.339 2.338,0.943c0.313,0.306 0.564,0.668 0.739,1.068c0.188,0.433 0.283,0.9 0.277,1.372c0.006,0.476 -0.087,0.948 -0.274,1.385c-0.173,0.401 -0.423,0.764 -0.736,1.069l0,0ZM163.965,94.61c-0.116,-0.367 -0.3,-0.71 -0.542,-1.01c-0.238,-0.292 -0.536,-0.529 -0.874,-0.694c-0.37,-0.175 -0.775,-0.263 -1.184,-0.256c-0.3,0.002 -0.596,0.065 -0.87,0.187c-0.296,0.13 -0.563,0.32 -0.784,0.557c-0.247,0.267 -0.44,0.579 -0.57,0.918c-0.153,0.408 -0.227,0.841 -0.219,1.276c-0.002,0.404 0.07,0.804 0.214,1.181c0.134,0.358 0.333,0.689 0.586,0.976c0.246,0.276 0.544,0.502 0.877,0.664c0.337,0.164 0.708,0.248 1.083,0.246c0.334,0.002 0.664,-0.066 0.97,-0.201c0.298,-0.131 0.565,-0.325 0.782,-0.568c0.231,-0.262 0.409,-0.566 0.525,-0.895c0.134,-0.376 0.199,-0.773 0.194,-1.172c0.002,-0.41 -0.061,-0.818 -0.188,-1.209l0,0ZM133.137,98.648c-0.011,0.109 -0.027,0.217 -0.048,0.324l-4.256,0l0,-0.047c0.152,0.005 0.3,-0.049 0.413,-0.149c0.114,-0.112 0.175,-0.268 0.165,-0.428l0,-5.404c0.01,-0.16 -0.05,-0.316 -0.165,-0.427c-0.113,-0.102 -0.261,-0.156 -0.413,-0.151l0,-0.045l3.961,0c0.008,0.088 0.014,0.188 0.018,0.299c0.004,0.112 0.005,0.217 0.005,0.312l0,0.336l-0.046,0c0.005,-0.152 -0.047,-0.3 -0.147,-0.414c-0.111,-0.114 -0.266,-0.174 -0.425,-0.164l-2.049,0l0,2.835l1.87,0c0.056,0.002 0.112,-0.008 0.164,-0.029c0.041,-0.016 0.078,-0.041 0.108,-0.073c0.025,-0.027 0.045,-0.059 0.058,-0.094c0.011,-0.032 0.017,-0.066 0.017,-0.099l0.046,0l0,0.838l-0.046,0c0,-0.034 -0.006,-0.067 -0.017,-0.099c-0.013,-0.035 -0.033,-0.067 -0.058,-0.094c-0.03,-0.032 -0.067,-0.057 -0.108,-0.073c-0.052,-0.021 -0.108,-0.031 -0.164,-0.03l-1.87,0l0,2.218c-0.01,0.167 0.05,0.33 0.167,0.451c0.123,0.112 0.285,0.17 0.451,0.161l1.564,0c0.017,0.001 0.033,0.002 0.049,0.002c0.423,0 0.771,-0.348 0.771,-0.77l0.047,0c-0.008,0.15 -0.018,0.297 -0.03,0.439c-0.008,0.124 -0.019,0.249 -0.032,0.375l0,0ZM117.636,98.135c-0.012,0.153 -0.024,0.298 -0.035,0.432c-0.123,0.054 -0.268,0.108 -0.436,0.162c-0.189,0.06 -0.38,0.109 -0.574,0.147c-0.216,0.045 -0.457,0.081 -0.724,0.111c-0.293,0.029 -0.587,0.044 -0.882,0.043c-0.504,0.006 -1.005,-0.085 -1.475,-0.269c-0.419,-0.165 -0.8,-0.412 -1.122,-0.727c-0.309,-0.307 -0.552,-0.674 -0.714,-1.078c-0.168,-0.416 -0.254,-0.861 -0.251,-1.31c-0.002,-0.451 0.088,-0.897 0.266,-1.311c0.344,-0.812 0.99,-1.459 1.801,-1.803c0.415,-0.181 0.864,-0.272 1.317,-0.269c0.305,-0.003 0.611,0.022 0.912,0.075c0.226,0.041 0.45,0.097 0.669,0.167c0.152,0.048 0.302,0.105 0.448,0.17c0.079,0.041 0.164,0.071 0.251,0.09l0.173,1.016l-0.051,0c-0.191,-0.387 -0.505,-0.699 -0.892,-0.889c-0.421,-0.183 -0.878,-0.272 -1.337,-0.26c-0.748,-0.005 -1.465,0.298 -1.983,0.837c-0.263,0.276 -0.47,0.599 -0.609,0.953c-0.154,0.39 -0.231,0.805 -0.226,1.224c-0.003,0.409 0.077,0.815 0.237,1.192c0.149,0.355 0.363,0.678 0.63,0.955c0.259,0.269 0.567,0.484 0.908,0.636c0.339,0.153 0.706,0.232 1.078,0.231c0.322,0.002 0.644,-0.021 0.963,-0.067c0.268,-0.037 0.529,-0.115 0.774,-0.23c0.218,-0.106 0.411,-0.256 0.566,-0.442c0.163,-0.203 0.279,-0.44 0.341,-0.693l0.046,0c-0.008,0.158 -0.019,0.315 -0.035,0.474c-0.011,0.134 -0.023,0.278 -0.034,0.433l0,0ZM99.247,98.925c0.079,0.001 0.156,-0.019 0.224,-0.058c0.064,-0.036 0.118,-0.086 0.159,-0.147c0.084,-0.123 0.098,-0.282 0.037,-0.419l-1.05,-2.406l-2.622,0l-0.958,2.406c-0.031,0.07 -0.041,0.148 -0.031,0.223c0.008,0.072 0.034,0.142 0.074,0.202c0.042,0.06 0.096,0.11 0.16,0.145c0.067,0.037 0.143,0.055 0.219,0.054l0,0.047l-1.697,0l0,-0.047c0.389,-0.002 0.737,-0.247 0.871,-0.612l2.397,-5.975c0.142,-0.021 0.275,-0.086 0.38,-0.185c0.107,-0.098 0.18,-0.228 0.208,-0.37l2.869,6.53c0.073,0.194 0.205,0.36 0.376,0.476c0.146,0.09 0.314,0.137 0.485,0.136l0,0.047l-2.101,0l0,-0.047l0,0ZM97.254,92.753l-1.159,2.893l2.418,0l-1.259,-2.893ZM78.695,98.972l0,-0.047c0.253,-0.001 0.461,-0.208 0.463,-0.461l0,-5.636c-0.001,-0.253 -0.209,-0.461 -0.463,-0.462l0,-0.045l1.652,0l0,0.045c-0.121,-0.002 -0.238,0.047 -0.32,0.136c-0.086,0.087 -0.133,0.205 -0.13,0.326l0,4.85c-0.017,0.251 0.069,0.499 0.239,0.685c0.182,0.168 0.426,0.254 0.673,0.239l1.685,0c0.144,0.008 0.279,-0.069 0.347,-0.196l0.346,-0.681l0.093,0.033l-0.462,1.214l-4.123,0l0,0ZM66.734,95.49c-0.178,0.166 -0.387,0.294 -0.615,0.378c-0.254,0.093 -0.522,0.139 -0.792,0.136c-0.139,-0.001 -0.277,-0.01 -0.415,-0.029c-0.106,-0.011 -0.211,-0.035 -0.312,-0.07l0,-0.045c0.292,0.01 0.583,-0.033 0.86,-0.125c0.224,-0.075 0.429,-0.196 0.603,-0.355c0.158,-0.147 0.281,-0.327 0.359,-0.528c0.079,-0.204 0.119,-0.42 0.118,-0.638c0.003,-0.215 -0.041,-0.427 -0.127,-0.624c-0.082,-0.184 -0.203,-0.349 -0.355,-0.482c-0.159,-0.136 -0.342,-0.241 -0.54,-0.309c-0.221,-0.075 -0.453,-0.112 -0.687,-0.109l-0.387,0l0,5.611c-0.002,0.101 0.016,0.202 0.053,0.296c0.029,0.074 0.075,0.139 0.134,0.192c0.054,0.047 0.117,0.083 0.186,0.105c0.066,0.021 0.135,0.031 0.205,0.031l0,0.047l-1.894,0l0,-0.047c0.07,0 0.14,-0.01 0.208,-0.031c0.068,-0.021 0.131,-0.057 0.184,-0.105c0.057,-0.052 0.102,-0.116 0.133,-0.187c0.037,-0.087 0.055,-0.182 0.052,-0.277l0,-5.376c0.003,-0.089 -0.015,-0.178 -0.052,-0.259c-0.032,-0.069 -0.077,-0.131 -0.133,-0.183c-0.054,-0.047 -0.116,-0.083 -0.184,-0.106c-0.067,-0.022 -0.138,-0.034 -0.208,-0.035l0,-0.045l2.015,0c0.304,-0.005 0.605,0.044 0.892,0.143c0.248,0.087 0.476,0.222 0.672,0.397c0.183,0.163 0.328,0.364 0.425,0.588c0.098,0.227 0.149,0.472 0.148,0.719c0.002,0.255 -0.047,0.507 -0.146,0.742c-0.091,0.219 -0.227,0.417 -0.4,0.58l0,0ZM38.408,98.648c-0.011,0.109 -0.027,0.217 -0.048,0.324l-4.256,0l0,-0.047c0.152,0.005 0.3,-0.049 0.413,-0.149c0.114,-0.112 0.174,-0.268 0.165,-0.428l0,-5.404c0.01,-0.16 -0.05,-0.316 -0.165,-0.427c-0.113,-0.102 -0.261,-0.156 -0.413,-0.151l0,-0.045l3.961,0c0.008,0.088 0.014,0.188 0.018,0.299c0.004,0.112 0.005,0.217 0.005,0.312l0,0.336l-0.045,0c0.005,-0.152 -0.048,-0.3 -0.148,-0.414c-0.111,-0.114 -0.266,-0.174 -0.425,-0.164l-2.049,0l0,2.835l1.87,0c0.056,0.002 0.112,-0.008 0.164,-0.029c0.041,-0.016 0.078,-0.041 0.108,-0.073c0.025,-0.027 0.045,-0.059 0.058,-0.094c0.011,-0.032 0.017,-0.066 0.017,-0.099l0.046,0l0,0.838l-0.046,0c0,-0.034 -0.006,-0.067 -0.017,-0.099c-0.013,-0.035 -0.033,-0.067 -0.058,-0.094c-0.03,-0.032 -0.067,-0.057 -0.108,-0.073c-0.052,-0.021 -0.108,-0.031 -0.164,-0.03l-1.87,0l0,2.218c-0.01,0.167 0.051,0.33 0.167,0.451c0.123,0.112 0.285,0.17 0.451,0.161l1.564,0c0.017,0.001 0.033,0.002 0.049,0.002c0.423,0 0.771,-0.348 0.771,-0.77l0.047,0c-0.008,0.15 -0.018,0.297 -0.03,0.439c-0.008,0.124 -0.019,0.249 -0.032,0.375l0,0ZM21.091,98.925c0.126,0.005 0.248,-0.044 0.335,-0.136c0.083,-0.087 0.129,-0.204 0.127,-0.325l0,-2.692l-3.926,0l0,2.692c-0.003,0.121 0.043,0.238 0.127,0.325c0.086,0.092 0.208,0.141 0.334,0.136l0,0.047l-1.662,0l0,-0.047c0.126,0.005 0.248,-0.044 0.334,-0.136c0.084,-0.087 0.13,-0.204 0.128,-0.325l0,-5.636c0.002,-0.121 -0.044,-0.238 -0.128,-0.326c-0.086,-0.091 -0.208,-0.141 -0.334,-0.136l0,-0.045l1.662,0l0,0.045c-0.125,-0.005 -0.248,0.045 -0.334,0.136c-0.084,0.088 -0.13,0.205 -0.127,0.326l0,2.697l3.926,0l0,-2.697c0.002,-0.121 -0.044,-0.238 -0.127,-0.326c-0.087,-0.091 -0.209,-0.141 -0.335,-0.136l0,-0.045l1.663,0l0,0.045c-0.126,-0.005 -0.248,0.045 -0.335,0.136c-0.084,0.088 -0.13,0.205 -0.127,0.326l0,5.636c-0.003,0.121 0.043,0.238 0.127,0.325c0.086,0.092 0.209,0.141 0.335,0.136l0,0.047l-1.663,0l0,-0.047l0,0ZM4.985,92.816c-0.088,-0.083 -0.205,-0.128 -0.326,-0.126l-1.709,0l0,5.774c-0.002,0.121 0.044,0.238 0.127,0.325c0.087,0.092 0.209,0.141 0.335,0.136l0,0.047l-1.663,0l0,-0.047c0.126,0.005 0.249,-0.044 0.335,-0.136c0.084,-0.087 0.129,-0.204 0.127,-0.325l0,-5.774l-1.709,0c-0.121,-0.002 -0.238,0.043 -0.326,0.126c-0.092,0.087 -0.141,0.21 -0.136,0.336l-0.046,0l0,-0.831l5.173,0l0,0.831l-0.046,0c0.005,-0.126 -0.044,-0.248 -0.136,-0.336l0,0Z" style="fill:#404041;"/><path id="dd" d="M291.948,45.448c-0.205,0.069 -0.397,0.175 -0.564,0.313c-0.173,0.145 -0.312,0.326 -0.408,0.531c-0.11,0.236 -0.164,0.495 -0.158,0.756l-0.138,18.185l-0.14,0l-14.987,-16.203l0.07,14.361c-0.006,0.261 0.048,0.52 0.157,0.757c0.096,0.204 0.235,0.384 0.408,0.529c0.167,0.139 0.359,0.245 0.565,0.313c0.207,0.07 0.425,0.105 0.643,0.105l0,0.138l-4.642,0l0,-0.138c0.257,0.004 0.512,-0.046 0.748,-0.148c0.21,-0.092 0.399,-0.225 0.557,-0.391c0.148,-0.159 0.266,-0.345 0.346,-0.548c0.081,-0.196 0.122,-0.405 0.123,-0.617l-0.105,-15.057c0.001,-0.389 -0.079,-0.774 -0.234,-1.13c-0.155,-0.355 -0.373,-0.679 -0.644,-0.957c-0.276,-0.28 -0.603,-0.504 -0.964,-0.659c-0.385,-0.166 -0.799,-0.249 -1.218,-0.245l0,-0.138l3.686,0l14.552,15.717l0.14,-13.874c-0.001,-0.212 -0.042,-0.422 -0.123,-0.618c-0.08,-0.202 -0.198,-0.388 -0.346,-0.547c-0.158,-0.166 -0.347,-0.3 -0.556,-0.392c-0.237,-0.102 -0.492,-0.152 -0.749,-0.148l0,-0.138l4.625,0l0,0.138c-0.219,0 -0.436,0.035 -0.644,0.105l0,0ZM265.072,62.608c-0.927,0.893 -2.019,1.596 -3.217,2.069c-1.221,0.488 -2.526,0.736 -3.841,0.731c-1.731,-0.001 -3.434,-0.444 -4.946,-1.287c-0.751,-0.419 -1.446,-0.93 -2.069,-1.521c-0.634,-0.599 -1.184,-1.28 -1.636,-2.026c-0.466,-0.774 -0.825,-1.607 -1.068,-2.477c-0.26,-0.937 -0.389,-1.905 -0.383,-2.878c-0.004,-0.944 0.128,-1.884 0.391,-2.791c0.251,-0.865 0.617,-1.692 1.087,-2.46c0.461,-0.749 1.016,-1.435 1.652,-2.042c0.626,-0.601 1.324,-1.124 2.077,-1.556c0.744,-0.427 1.539,-0.761 2.365,-0.992c0.823,-0.23 1.675,-0.347 2.53,-0.347c2.625,0.003 5.15,1.022 7.041,2.842c0.941,0.92 1.697,2.012 2.226,3.217c0.568,1.302 0.852,2.709 0.835,4.129c0.019,1.434 -0.262,2.855 -0.827,4.174c-0.52,1.207 -1.274,2.299 -2.217,3.215l0,0ZM265.325,52.098c-0.352,-1.107 -0.906,-2.138 -1.634,-3.042c-0.717,-0.878 -1.616,-1.59 -2.635,-2.087c-1.112,-0.53 -2.332,-0.795 -3.563,-0.773c-0.902,0.007 -1.793,0.199 -2.618,0.565c-0.895,0.391 -1.7,0.962 -2.365,1.678c-0.74,0.805 -1.321,1.743 -1.712,2.764c-0.44,1.102 -0.661,2.383 -0.661,3.843c-0.006,1.214 0.212,2.42 0.644,3.555c0.405,1.078 1.003,2.074 1.764,2.939c0.741,0.834 1.639,1.513 2.643,1.999c1.016,0.493 2.131,0.745 3.26,0.739c1.005,0.008 2.001,-0.197 2.921,-0.601c0.899,-0.395 1.702,-0.979 2.356,-1.711c0.694,-0.79 1.232,-1.705 1.582,-2.696c0.402,-1.133 0.599,-2.328 0.582,-3.53c0.006,-1.236 -0.184,-2.466 -0.564,-3.642l0,0ZM238.586,65.095c0.379,0.015 0.746,-0.134 1.007,-0.408c0.252,-0.265 0.39,-0.618 0.383,-0.983l0,-16.969c0.007,-0.365 -0.13,-0.718 -0.383,-0.982c-0.261,-0.275 -0.628,-0.425 -1.007,-0.41l0,-0.138l5.006,0l0,0.138c-0.379,-0.015 -0.747,0.134 -1.007,0.41c-0.253,0.264 -0.39,0.617 -0.383,0.982l0,16.969c-0.007,0.365 0.131,0.718 0.383,0.983c0.261,0.274 0.628,0.423 1.007,0.408l0,0.138l-5.006,0l0,-0.138l0,0ZM233.532,46.7c-0.264,-0.252 -0.617,-0.39 -0.982,-0.383l-5.146,0l0,17.387c-0.007,0.365 0.13,0.718 0.381,0.983c0.262,0.274 0.63,0.423 1.009,0.408l0,0.138l-5.007,0l0,-0.138c0.379,0.015 0.747,-0.134 1.009,-0.408c0.251,-0.265 0.389,-0.618 0.383,-0.983l0,-17.387l-5.148,0c-0.365,-0.006 -0.718,0.131 -0.982,0.383c-0.275,0.262 -0.424,0.629 -0.409,1.008l-0.138,0l0,-2.503l15.578,0l0,2.503l-0.139,0c0.015,-0.379 -0.134,-0.747 -0.409,-1.008l0,0ZM211.837,65.095c0.238,0.005 0.472,-0.056 0.677,-0.175c0.191,-0.109 0.355,-0.261 0.479,-0.443c0.121,-0.178 0.196,-0.385 0.217,-0.599c0.022,-0.226 -0.014,-0.454 -0.104,-0.661l-3.165,-7.251l-7.892,0l-2.887,7.251c-0.091,0.21 -0.124,0.441 -0.095,0.669c0.051,0.441 0.314,0.831 0.704,1.044c0.202,0.111 0.429,0.168 0.66,0.165l0,0.138l-5.112,0l0,-0.138c1.171,-0.008 2.221,-0.745 2.626,-1.843l7.216,-17.995c0.429,-0.065 0.83,-0.259 1.147,-0.556c0.321,-0.296 0.54,-0.685 0.626,-1.113l8.641,19.664c0.301,0.683 0.678,1.162 1.13,1.435c0.44,0.268 0.945,0.409 1.46,0.408l0,0.138l-6.328,0l0,-0.138l0,0ZM205.838,46.508l-3.494,8.711l7.284,0l-3.79,-8.711ZM192.113,45.448c-0.205,0.069 -0.397,0.175 -0.564,0.313c-0.173,0.145 -0.312,0.326 -0.408,0.531c-0.11,0.236 -0.164,0.495 -0.158,0.756l-0.138,18.185l-0.14,0l-14.987,-16.203l0.07,14.361c-0.006,0.261 0.048,0.52 0.157,0.757c0.096,0.204 0.236,0.384 0.409,0.529c0.166,0.139 0.358,0.245 0.564,0.313c0.207,0.07 0.425,0.105 0.643,0.105l0,0.138l-4.642,0l0,-0.138c0.257,0.004 0.512,-0.046 0.749,-0.148c0.209,-0.092 0.398,-0.225 0.556,-0.391c0.148,-0.159 0.266,-0.345 0.346,-0.548c0.081,-0.196 0.122,-0.405 0.123,-0.617l-0.105,-15.057c0.001,-0.389 -0.079,-0.774 -0.234,-1.13c-0.155,-0.355 -0.373,-0.679 -0.643,-0.957c-0.277,-0.28 -0.604,-0.504 -0.965,-0.659c-0.385,-0.166 -0.799,-0.249 -1.218,-0.245l0,-0.138l3.686,0l14.552,15.717l0.14,-13.874c0,-0.212 -0.042,-0.422 -0.122,-0.618c-0.081,-0.202 -0.199,-0.388 -0.347,-0.547c-0.158,-0.166 -0.347,-0.3 -0.556,-0.392c-0.237,-0.102 -0.492,-0.152 -0.749,-0.148l0,-0.138l4.625,0l0,0.138c-0.219,0 -0.436,0.035 -0.644,0.105l0,0ZM185.098,32.444c0.238,0.004 0.472,-0.056 0.677,-0.175c0.191,-0.11 0.355,-0.261 0.479,-0.443c0.121,-0.179 0.196,-0.385 0.217,-0.6c0.022,-0.225 -0.014,-0.453 -0.104,-0.661l-3.165,-7.25l-7.893,0l-2.886,7.25c-0.091,0.211 -0.124,0.442 -0.095,0.669c0.051,0.442 0.314,0.831 0.704,1.045c0.202,0.111 0.429,0.168 0.66,0.165l0,0.138l-5.112,0l0,-0.138c1.171,-0.008 2.221,-0.745 2.626,-1.844l7.215,-17.994c0.43,-0.065 0.831,-0.259 1.148,-0.556c0.321,-0.296 0.54,-0.686 0.626,-1.113l8.641,19.663c0.301,0.684 0.678,1.163 1.13,1.435c0.44,0.269 0.945,0.41 1.46,0.409l0,0.138l-6.328,0l0,-0.138l0,0ZM179.099,13.857l-3.494,8.711l7.284,0l-3.79,-8.711ZM162.265,65.095c0.379,0.015 0.746,-0.134 1.008,-0.408c0.252,-0.265 0.389,-0.618 0.383,-0.983l0,-16.969c0.007,-0.365 -0.131,-0.718 -0.383,-0.982c-0.261,-0.275 -0.629,-0.425 -1.008,-0.41l0,-0.138l5.007,0l0,0.138c-0.38,-0.015 -0.747,0.134 -1.008,0.41c-0.252,0.264 -0.39,0.617 -0.383,0.982l0,16.969c-0.007,0.365 0.131,0.718 0.383,0.983c0.261,0.274 0.629,0.423 1.008,0.408l0,0.138l-5.007,0l0,-0.138l0,0ZM152.953,32.582l0,-0.138c0.762,-0.003 1.389,-0.629 1.392,-1.391l0,-16.969c-0.003,-0.762 -0.629,-1.388 -1.392,-1.392l0,-0.139l4.973,0l0,0.139c-0.365,-0.007 -0.716,0.142 -0.964,0.41c-0.257,0.261 -0.398,0.615 -0.391,0.982l0,14.604c0,0.892 0.24,1.579 0.721,2.06c0.481,0.481 1.156,0.722 2.025,0.722l5.078,0c0.432,0.023 0.841,-0.208 1.043,-0.592l1.042,-2.051l0.278,0.104l-1.39,3.651l-12.415,0l0,0ZM143.197,32.444c0.18,0.007 0.359,-0.038 0.513,-0.131c0.246,-0.15 0.375,-0.438 0.321,-0.721c-0.022,-0.139 -0.089,-0.268 -0.19,-0.366l-7.963,-7.98l0,7.807c-0.006,0.365 0.131,0.718 0.382,0.982c0.262,0.275 0.63,0.424 1.009,0.409l0,0.138l-5.008,0l0,-0.138c0.379,0.015 0.747,-0.134 1.009,-0.409c0.252,-0.264 0.389,-0.617 0.383,-0.982l0,-16.969c0.007,-0.365 -0.131,-0.718 -0.383,-0.982c-0.261,-0.276 -0.63,-0.426 -1.009,-0.41l0,-0.139l5.008,0l0,0.139c-0.38,-0.016 -0.748,0.134 -1.009,0.41c-0.252,0.264 -0.389,0.617 -0.382,0.982l0,7.754l7.893,-7.929c0.101,-0.098 0.168,-0.225 0.192,-0.364c0.023,-0.135 0.008,-0.274 -0.044,-0.4c-0.057,-0.134 -0.155,-0.246 -0.279,-0.322c-0.154,-0.093 -0.332,-0.139 -0.511,-0.131l0,-0.139l4.745,0l0,0.139c-0.56,0.013 -1.104,0.198 -1.556,0.531c-0.558,0.388 -1.078,0.828 -1.556,1.312l-7.233,7.233l8.832,8.832c0.478,0.485 0.998,0.924 1.556,1.313c0.452,0.332 0.996,0.518 1.556,0.531l0,0.138l-6.276,0l0,-0.138l0,0ZM134.671,45.343c0.603,0.173 1.193,0.388 1.766,0.644l1.025,3.199l-0.122,0.07c-0.202,-0.314 -0.422,-0.616 -0.66,-0.904c-0.671,-0.818 -1.535,-1.457 -2.512,-1.861c-0.588,-0.239 -1.218,-0.357 -1.852,-0.347c-0.476,-0.009 -0.948,0.077 -1.391,0.251c-0.381,0.151 -0.727,0.379 -1.017,0.669c-0.274,0.282 -0.487,0.616 -0.626,0.984c-0.146,0.38 -0.22,0.783 -0.218,1.19c-0.011,0.523 0.118,1.04 0.375,1.496c0.262,0.444 0.594,0.843 0.982,1.182c0.432,0.378 0.898,0.716 1.391,1.008c0.521,0.313 1.052,0.629 1.591,0.947c0.539,0.319 1.07,0.661 1.591,1.027c0.51,0.355 0.977,0.769 1.391,1.233c0.408,0.463 0.74,0.989 0.982,1.556c0.26,0.64 0.387,1.327 0.373,2.017c0,1.009 -0.173,1.873 -0.521,2.591c-0.603,1.308 -1.715,2.314 -3.077,2.783c-0.586,0.211 -1.203,0.322 -1.826,0.33c-0.55,0.002 -1.1,-0.042 -1.643,-0.13c-0.471,-0.077 -0.935,-0.185 -1.391,-0.323c-0.367,-0.111 -0.727,-0.244 -1.078,-0.399c-0.242,-0.105 -0.478,-0.228 -0.704,-0.365c-0.174,-0.614 -0.337,-1.188 -0.488,-1.721c-0.068,-0.233 -0.135,-0.461 -0.198,-0.687c-0.064,-0.226 -0.123,-0.441 -0.175,-0.644c-0.052,-0.203 -0.098,-0.385 -0.138,-0.548c-0.041,-0.163 -0.073,-0.283 -0.096,-0.364l0.139,-0.035c0.38,0.745 0.86,1.435 1.425,2.052c0.258,0.267 0.531,0.52 0.817,0.756c0.64,0.524 1.384,0.906 2.182,1.121c0.446,0.118 0.905,0.177 1.365,0.173c0.503,0.004 1.001,-0.087 1.469,-0.269c0.445,-0.171 0.85,-0.431 1.192,-0.764c0.341,-0.338 0.613,-0.74 0.799,-1.182c0.203,-0.488 0.303,-1.011 0.296,-1.539c0.012,-0.552 -0.114,-1.099 -0.365,-1.591c-0.251,-0.468 -0.577,-0.891 -0.965,-1.252c-0.42,-0.392 -0.877,-0.741 -1.365,-1.043c-0.51,-0.32 -1.034,-0.644 -1.574,-0.974c-0.54,-0.33 -1.064,-0.683 -1.573,-1.06c-0.503,-0.372 -0.961,-0.801 -1.365,-1.278c-0.892,-1.058 -1.365,-2.407 -1.329,-3.791c-0.01,-0.639 0.127,-1.272 0.399,-1.851c0.259,-0.541 0.623,-1.025 1.069,-1.426c0.452,-0.403 0.978,-0.716 1.548,-0.922c0.593,-0.216 1.22,-0.324 1.852,-0.321c0.761,-0.005 1.519,0.1 2.25,0.312l0,0ZM126.627,13.04c-0.249,0.232 -0.374,0.591 -0.374,1.079l0,10.674c0.022,1.168 -0.187,2.33 -0.616,3.417c-0.377,0.939 -0.945,1.789 -1.669,2.495c-0.708,0.676 -1.549,1.197 -2.47,1.529c-0.972,0.353 -2,0.53 -3.034,0.523c-1.033,0.007 -2.059,-0.164 -3.034,-0.505c-0.92,-0.321 -1.761,-0.834 -2.468,-1.504c-0.725,-0.702 -1.294,-1.549 -1.669,-2.486c-0.411,-0.991 -0.617,-2.148 -0.617,-3.469l0,-10.293c0.007,-0.286 -0.046,-0.57 -0.157,-0.834c-0.093,-0.214 -0.229,-0.406 -0.401,-0.564c-0.159,-0.145 -0.349,-0.252 -0.556,-0.313c-0.202,-0.064 -0.413,-0.097 -0.625,-0.097l0,-0.139l5.703,0l0,0.139c-0.212,0 -0.424,0.033 -0.626,0.097c-0.206,0.062 -0.396,0.169 -0.556,0.313c-0.172,0.158 -0.308,0.35 -0.401,0.564c-0.11,0.264 -0.163,0.548 -0.156,0.834l0,10.485c-0.019,0.929 0.144,1.854 0.479,2.721c0.292,0.744 0.739,1.416 1.312,1.973c0.557,0.533 1.221,0.942 1.947,1.199c1.543,0.534 3.221,0.534 4.764,0c0.727,-0.257 1.39,-0.666 1.947,-1.199c0.572,-0.557 1.02,-1.23 1.312,-1.973c0.334,-0.867 0.497,-1.792 0.479,-2.721l0,-10.866c0,-0.488 -0.125,-0.847 -0.374,-1.079c-0.275,-0.241 -0.634,-0.366 -0.999,-0.348l0,-0.139l3.859,0l0,0.139c-0.366,-0.018 -0.725,0.107 -1,0.348ZM101.953,62.23c-0.967,0.894 -2.19,1.595 -3.668,2.105c-1.478,0.509 -3.231,0.764 -5.259,0.764l-8.085,0l0,-0.138c0.355,0.007 0.708,-0.061 1.034,-0.201c0.29,-0.128 0.546,-0.321 0.747,-0.565c0.208,-0.253 0.362,-0.546 0.453,-0.86c0.101,-0.354 0.151,-0.72 0.147,-1.087l0,-14.326c0.004,-0.368 -0.046,-0.734 -0.147,-1.087c-0.091,-0.315 -0.245,-0.608 -0.453,-0.86c-0.202,-0.243 -0.458,-0.437 -0.747,-0.566c-0.326,-0.14 -0.679,-0.208 -1.034,-0.2l0,-0.139l8.449,0c1.889,0 3.544,0.255 4.965,0.765c1.318,0.451 2.531,1.167 3.563,2.104c0.949,0.881 1.687,1.966 2.157,3.172c0.489,1.267 0.734,2.616 0.721,3.974c0.012,1.355 -0.224,2.702 -0.696,3.973c-0.456,1.211 -1.192,2.299 -2.147,3.172l0,0ZM101.927,51.442c-0.41,-1.065 -1.054,-2.025 -1.886,-2.807c-0.879,-0.807 -1.915,-1.422 -3.043,-1.809c-1.2,-0.428 -2.577,-0.643 -4.13,-0.643l-3.32,0l0,15.631c0,0.707 0.168,1.245 0.504,1.616c0.336,0.371 0.875,0.557 1.617,0.557l1.443,0c1.306,0.015 2.604,-0.215 3.825,-0.679c1.11,-0.421 2.126,-1.056 2.991,-1.869c0.836,-0.795 1.499,-1.754 1.947,-2.816c0.471,-1.12 0.707,-2.324 0.695,-3.538c0.016,-1.244 -0.202,-2.48 -0.643,-3.643l0,0ZM101.953,29.713c-0.967,0.894 -2.19,1.595 -3.668,2.105c-1.478,0.509 -3.231,0.764 -5.259,0.764l-8.085,0l0,-0.138c0.355,0.007 0.708,-0.061 1.034,-0.2c0.29,-0.129 0.546,-0.322 0.747,-0.566c0.208,-0.253 0.362,-0.546 0.453,-0.86c0.101,-0.353 0.151,-0.72 0.147,-1.087l0,-14.326c0.004,-0.368 -0.046,-0.734 -0.147,-1.087c-0.091,-0.315 -0.245,-0.607 -0.453,-0.86c-0.202,-0.243 -0.458,-0.437 -0.747,-0.566c-0.326,-0.139 -0.679,-0.208 -1.034,-0.2l0,-0.139l8.449,0c1.889,0 3.544,0.255 4.965,0.765c1.318,0.451 2.531,1.167 3.563,2.104c0.949,0.881 1.687,1.966 2.157,3.173c0.489,1.267 0.734,2.615 0.721,3.973c0.012,1.356 -0.224,2.702 -0.696,3.973c-0.456,1.212 -1.192,2.299 -2.147,3.172l0,0ZM101.927,18.925c-0.41,-1.065 -1.054,-2.025 -1.886,-2.807c-0.879,-0.806 -1.915,-1.422 -3.043,-1.808c-1.2,-0.429 -2.577,-0.644 -4.13,-0.644l-3.32,0l0,15.631c0,0.707 0.168,1.245 0.504,1.616c0.336,0.371 0.875,0.557 1.617,0.557l1.443,0c1.306,0.015 2.604,-0.215 3.825,-0.679c1.11,-0.421 2.126,-1.056 2.991,-1.869c0.836,-0.795 1.499,-1.754 1.947,-2.816c0.471,-1.12 0.707,-2.324 0.695,-3.538c0.016,-1.244 -0.202,-2.48 -0.643,-3.643l0,0ZM120.916,46.109c0.011,0.336 0.018,0.649 0.018,0.939l0,1.008l-0.14,0c0.015,-0.455 -0.143,-0.9 -0.443,-1.243c-0.296,-0.331 -0.722,-0.496 -1.278,-0.496l-6.172,0l0,8.537l5.633,0c0.169,0.005 0.338,-0.024 0.496,-0.086c0.121,-0.05 0.23,-0.124 0.321,-0.218c0.078,-0.082 0.138,-0.18 0.175,-0.288c0.033,-0.095 0.051,-0.195 0.052,-0.295l0.138,0l0,2.522l-0.138,0c-0.001,-0.101 -0.019,-0.201 -0.052,-0.296c-0.037,-0.107 -0.097,-0.205 -0.175,-0.287c-0.092,-0.094 -0.201,-0.168 -0.321,-0.218c-0.158,-0.062 -0.327,-0.091 -0.496,-0.086l-5.633,0l0,6.677c0,0.579 0.168,1.031 0.504,1.355c0.336,0.325 0.788,0.487 1.356,0.487l4.712,0c0.719,0 1.299,-0.209 1.739,-0.626c0.44,-0.418 0.683,-0.98 0.729,-1.687l0.14,0c-0.024,0.453 -0.052,0.894 -0.087,1.323c-0.023,0.37 -0.055,0.747 -0.096,1.13c-0.032,0.326 -0.081,0.651 -0.147,0.972l-12.814,0l0,-0.138c0.457,0.015 0.903,-0.147 1.243,-0.453c0.331,-0.301 0.496,-0.729 0.496,-1.286l0,-16.274c0,-0.557 -0.165,-0.985 -0.496,-1.286c-0.34,-0.305 -0.786,-0.467 -1.243,-0.453l0,-0.138l11.927,0c0.023,0.267 0.04,0.568 0.052,0.904l0,0ZM157.491,47.708l-0.14,0c0.016,-0.379 -0.133,-0.747 -0.408,-1.008c-0.264,-0.252 -0.617,-0.39 -0.982,-0.383l-5.147,0l0,17.387c-0.006,0.365 0.131,0.718 0.382,0.983c0.262,0.274 0.63,0.423 1.009,0.408l0,0.138l-5.008,0l0,-0.138c0.379,0.015 0.747,-0.134 1.009,-0.408c0.252,-0.265 0.39,-0.618 0.383,-0.983l0,-17.387l-5.147,0c-0.365,-0.006 -0.718,0.131 -0.983,0.383c-0.274,0.262 -0.423,0.629 -0.408,1.008l-0.139,0l0,-2.503l15.579,0l0,2.503Z" style="fill:#404041;"/></svg>