<?xml version="1.0" encoding="UTF-8" standalone="no"?>
<!DOCTYPE svg PUBLIC "-//W3C//DTD SVG 1.1//EN" "http://www.w3.org/Graphics/SVG/1.1/DTD/svg11.dtd">
<svg version="1.1" xmlns="http://www.w3.org/2000/svg" xmlns:xlink="http://www.w3.org/1999/xlink" preserveAspectRatio="xMidYMid meet" viewBox="0 0 276 403" width="276" height="403"><defs><path d="M0.04 401.2C-0.5 402.53 4.7 402.93 23.21 402.93C24.79 402.93 32.69 402.93 46.91 402.93L63.03 338.61L79.01 274.41L87.27 274.02L95.52 273.62L95.52 338.34L95.52 402.93L135.48 402.93L175.43 402.93L175.69 338.61L176.09 274.41L186.75 274.02L197.54 273.62L210.85 337.94L224.17 402.26C238.31 402.5 246.17 402.64 247.74 402.66C260.66 402.8 271.31 402.66 271.31 402.4C271.31 401.46 162.51 12.19 160.65 6.33C160.55 6.05 160.06 4.63 159.18 2.07C144.88 2.07 136.93 2.07 135.34 2.07C122.29 2.07 111.5 2.34 111.5 2.74C111.5 3.67 0.84 398.8 0.04 401.2Z" id="gazAno8D2G"></path></defs><g><g><g><use xlink:href="#gazAno8D2G" opacity="1" fill="#2f5962" fill-opacity="1"></use><g><use xlink:href="#gazAno8D2G" opacity="1" fill-opacity="0" stroke="#000000" stroke-width="1" stroke-opacity="0"></use></g></g></g></g></svg>