<?xml version="1.0" standalone="no"?><!DOCTYPE svg PUBLIC "-//W3C//DTD SVG 1.1//EN" "http://www.w3.org/Graphics/SVG/1.1/DTD/svg11.dtd"><svg width="166" height="166" viewBox="0 0 166 166" version="1.1" xmlns="http://www.w3.org/2000/svg" xmlns:xlink="http://www.w3.org/1999/xlink" xml:space="preserve" style="fill-rule:evenodd;clip-rule:evenodd;stroke-linejoin:round;stroke-miterlimit:1.41421;"><path d="M134.658,83.429l10.852,11.39l-3.178,0l-11.645,-12.185l0,-3.708l-8.723,-9.244l-0.806,0.004c-0.024,-0.264 -0.024,-0.53 0,-0.794c7.149,-3.463 2.5,-10.829 0.794,-10.861l0,-0.498l-0.297,0l-0.252,-5.795l-0.012,0c0,0 -0.034,-1.2 0,-1.325c4.738,-3.278 -0.741,-4.105 -1.709,-4.222c-0.968,0.117 -6.444,0.944 -1.708,4.222c0.034,0.125 0,1.325 0,1.325l-0.013,0l-0.251,5.795l0,0.498c-1.706,0.032 -6.353,7.398 0.793,10.861c0.024,0.264 0.024,0.53 0,0.794l-0.805,-0.004l-8.719,9.244l0,3.708l-8.994,10.067l-2.382,0l0,-0.05l-1.982,0c0,0 -0.666,-0.891 -1.188,-0.891c-0.522,0 -1.188,0.891 -1.188,0.891l-4.751,0c0,0 -0.666,-0.891 -1.188,-0.891c-0.522,0 -1.188,0.891 -1.188,0.891l-5.048,0c0,0 -0.666,-0.891 -1.188,-0.891c-0.522,0 -1.188,0.891 -1.188,0.891l-5.048,0c0,0 -0.666,-0.891 -1.188,-0.891c-0.522,0 -1.188,0.891 -1.188,0.891l-5.048,0l-9.8,-10.393l0,-12.176l-4.157,-3.86c-0.022,-0.297 -0.022,-0.594 0,-0.891c6.093,-3.812 1.846,-10.693 -2.079,-10.691c-0.099,-0.012 -0.198,-0.012 -0.297,0c-3.925,-0.002 -8.469,6.885 -2.376,10.691c-0.009,-0.006 0.02,0.878 0,0.891l-3.86,3.86l0,12.176l-9.503,10.393l0,7.127c0,0 -6.503,6.83 -6.533,6.83l-3.266,0l7.127,-7.721l0,-4.157l-2.376,0l0,-0.594l11.859,-12.826l0.019,-8.852l-2.672,0l5.829,-6.225c-6.001,-10.186 2.34,-13.62 4.564,-13.671l0,-2.673c0,0 -2.348,-0.437 -2.375,-1.188c-0.028,-0.75 2.23,-0.882 2.375,-0.891c-0.023,0.037 0,-4.157 0,-4.157c0,0 -3.266,0.017 -3.266,-1.188c0,-1.205 3.563,-1.188 3.563,-1.188l0,-2.375c0,0 -2.672,-0.119 -2.672,-0.891c0,-0.772 2.672,-0.891 2.672,-0.891c0,0 -0.099,-2.944 0.891,-2.97c0.99,0.026 0.891,2.97 0.891,2.97c0,0 2.654,0.378 2.673,0.891c0.027,0.772 -2.673,0.891 -2.673,0.891l0,2.375c0,0 3.563,-0.017 3.563,1.188c0,1.205 -3.266,1.188 -3.266,1.188l0,4.157c0,0 2.385,0.122 2.376,0.891c-0.01,0.763 -2.386,1.196 -2.386,1.196l0.01,2.665c2.769,0.424 10.375,4.012 4.706,13.649l5.823,6.357l-2.511,-0.11l0,8.909l8.863,8.949l2.421,-0.04c0,0 1.355,-1.188 2.079,-1.188c0.724,0 2.079,1.188 2.079,1.188l3.266,0c0,0 1.355,-1.188 2.079,-1.188c0.724,0 2.079,1.188 2.079,1.188l3.266,0c0,0 1.355,-1.188 2.079,-1.188c0.724,0 2.091,1.228 2.091,1.228l2.957,-0.04c0,0 1.355,-1.188 2.079,-1.188c0.724,0 2.111,1.228 2.111,1.228l1.749,-0.04l0,0.04l0.898,0l6.087,-6.887l-0.532,-0.795l-2.382,0l0,-0.53l12.31,-12.586c-4.098,-5.383 -2.549,-9.485 0.391,-12.282l0.026,0l0.479,-5.52c-4.831,-4.063 -0.127,-7.539 3.199,-8.108l0,-3.261c0,0 -3.44,0.145 -3.44,-1.06c0,-1.205 3.44,-1.059 3.44,-1.059l0,-2.914c0,0 -2.646,-0.287 -2.646,-1.059c0,-0.772 2.91,-0.795 2.91,-0.795c0,0 -0.152,-2.271 0.505,-2.8l0,-0.114c0.092,0.042 0.197,0.042 0.289,0l0,0.114c0.658,0.529 0.505,2.8 0.505,2.8c0,0 2.912,0.023 2.912,0.795c0,0.771 -2.647,1.059 -2.647,1.059l0,2.914c0,0 3.441,-0.145 3.441,1.06c0,1.205 -3.441,1.059 -3.441,1.059l0,3.26c3.326,0.57 8.032,4.047 3.2,8.109l0.479,5.52l0.323,0c2.94,2.798 4.49,6.9 0.391,12.282l12.314,12.586l0,0.53l-2.382,0l-0.264,0.795ZM96.809,87.306l-27.024,0l0,-2.079l27.024,0l0,2.079ZM95.22,69.389l1.059,14.04l-2.648,0l-1.059,-14.04l-0.529,0l1.588,-2.119l-6.798,-9.476l-0.613,0.004c-0.024,-0.264 -0.024,-0.53 0,-0.794l0.03,-0.023l-0.03,-0.042l0.076,0.007c7.787,-5.795 1.221,-11.882 -0.476,-13.293l-0.296,0c0,0 -0.304,-6.834 -0.297,-6.83c5.407,-4.437 -0.731,-5.753 -1.768,-5.953c-1.024,0.2 -7.027,1.596 -1.716,6.032c-0.008,-0.004 -0.376,6.751 -0.376,6.751l-0.297,0c-1.71,1.411 -8.514,7.513 -0.665,13.31l0.258,-0.024l-0.17,0.238c0.013,0.272 -0.017,0.73 -0.017,0.73c0,0 -0.2,-0.011 -0.489,-0.025l-6.735,9.388l1.588,2.119l-0.529,0l-1.059,14.04l-2.647,0l1.059,-14.04l-3.441,0l9.278,-11.864c-7.731,-9.462 0.896,-14.169 0.896,-14.169l0.297,-0.594l0.915,-5.375c-5.301,-4.006 -0.423,-7.88 2.907,-8.559l0,-3.252c0,0 -3.441,0.145 -3.441,-1.06c0,-1.205 3.441,-1.324 3.441,-1.324l0,-2.384c0,0 -2.647,-0.288 -2.647,-1.06c0,-0.771 2.91,-0.794 2.91,-0.794c0,0 -0.196,-3.153 0.794,-3.178c0.99,0.026 0.794,3.178 0.794,3.178c0,0 2.911,0.023 2.911,0.794c0,0.772 -2.645,1.061 -2.645,1.061l0,2.383c0,0 3.441,0.119 3.441,1.325c0,1.206 -3.441,1.06 -3.441,1.06l0,3.297c3.381,0.796 8.023,4.61 2.678,8.542l0.589,5.346l0.594,0.594c0,0 8.529,4.701 0.876,14.152l9.291,11.881l-3.441,0l0,0ZM117.982,118.659l-69.345,0l2.647,-2.384l63.788,0l2.91,2.384ZM70.076,95.614l2.382,0l-0.891,11.588l-2.673,0l1.182,-11.588ZM96.809,95.614l0.89,11.588l-2.375,0l-0.898,-11.588l2.383,0ZM111.366,111.243l-56.112,0l2.646,-2.385l50.554,0l2.912,2.385ZM121.159,122.632l2.91,2.385l-82.049,0l2.646,-2.385l76.493,0ZM83.31,126.605c16.028,0 15.616,17.218 15.616,17.218l-2.382,0c0,0 1.165,-14.569 -13.234,-14.569c-14.399,0 -14.03,15.365 -14.03,15.365l-2.381,0c0,0 0.383,-18.014 16.411,-18.014l0,0Z" style="fill:#f76633;"/><path id="Shape_74_copy" d="M0,83c-0.008,9.024 1.461,17.988 4.349,26.537c0.502,1.482 3.167,0.361 3.749,1.804c0.254,0.632 2.165,1.914 2.024,3.037c-0.21,1.671 -2.544,3.277 -2.11,4.187c13.343,28.023 41.941,47.435 74.988,47.435c45.767,0 83,-37.233 83,-83c0,-45.767 -37.233,-83 -83,-83c-5.454,-0.002 -10.895,0.532 -16.244,1.596c-0.559,0.111 -0.963,2.453 -0.963,2.453l-2.024,0c0,0 -0.327,-1.723 -0.618,-1.65c-36.214,8.919 -63.151,41.673 -63.151,80.601ZM6.64,83c-0.018,-16.62 5.419,-32.796 15.471,-46.032c0.394,-0.519 -0.207,-1.885 0.105,-2.473c0.015,-0.028 0.033,-0.055 0.053,-0.08c0.241,-0.301 1.012,-1.012 1.012,-1.012c0,0 1.439,0.308 1.754,-0.06c1.346,-1.569 2.753,-3.081 4.222,-4.538c0.381,-0.378 0.097,-2.489 0.097,-2.489l0.97,-0.043c0,0 1.228,0.346 1.511,0.091c7.673,-6.948 16.678,-12.265 26.468,-15.627c1.107,-0.379 1.212,-2.758 2.34,-3.087c1.059,-0.249 2.131,-0.439 3.211,-0.569l-0.085,-2.021l4.049,1.012l4.048,-3.036l4.049,1.012l1.012,3.037c0,0 3.636,-0.446 6.074,-0.446c1.049,0 4.048,-1.579 4.048,-1.579c0,0 1.99,-0.443 3.037,0c0.061,0.026 0.122,0.053 0.184,0.082c1.419,0.67 3.074,2.177 4.688,2.432c24.686,3.898 45.478,19.669 56.325,41.261c0.17,0.339 3.583,-0.25 3.583,-0.25l3.037,2.024l1.012,3.036l-2.024,1.013c0,0 -3.095,-0.28 -2.96,0.057c3.597,8.996 5.44,18.597 5.429,28.285c0,28.463 -15.653,53.337 -38.803,66.468c-0.526,0.3 0.336,2.756 -0.106,4.386c-0.52,1.922 -2.346,3.101 -3.036,4.048c-0.882,1.212 -2.376,-1.85 -3.037,-1.013c-0.959,1.221 -2.803,0.523 -4.049,1.013c-2.741,1.081 -4.987,-1.814 -7.872,-1.054c-6.35,1.672 -12.89,2.517 -19.457,2.512c-42.105,0 -76.36,-34.254 -76.36,-76.36ZM153.854,87.049l1.752,0.257l0.272,1.767l-1.756,-0.282M153.854,102.232l1.012,2.024l-1.012,0l0,-2.024ZM14.171,109.317l1.012,0l6.073,10.123l0,2.022l-2.024,0l-5.061,-12.145ZM18.352,88.061l2.024,0l0,2.024l1.013,0l1.012,-3.036l2.024,0l0,2.024l-4.047,4.049l-1.012,0l-1.014,-3.037l0,-2.024M17.342,86.037l1.01,0l3.037,-5.061l1.012,-1.013l-1.012,-2.024l-1.013,-2.024l-1.012,-1.012l-1.012,0l-1.01,1.012l0,10.122ZM10.122,66.805l1.012,0l2.024,-3.037l0,-2.024l-1.012,0l-2.025,5.061M43.792,141.275l9.11,2.026l1.012,2.025l-10.122,-4.051Z" style="fill:#f76633;"/></svg>