<?xml version="1.0" standalone="no"?><!DOCTYPE svg PUBLIC "-//W3C//DTD SVG 1.1//EN" "http://www.w3.org/Graphics/SVG/1.1/DTD/svg11.dtd"><svg width="166" height="166" viewBox="0 0 166 166" version="1.1" xmlns="http://www.w3.org/2000/svg" xmlns:xlink="http://www.w3.org/1999/xlink" xml:space="preserve" style="fill-rule:evenodd;clip-rule:evenodd;stroke-linejoin:round;stroke-miterlimit:1.41421;"><path id="Shape_74_copy_2" d="M0,82.5c-0.008,8.969 1.452,17.88 4.323,26.377c0.499,1.473 3.148,0.359 3.726,1.794c0.253,0.627 2.152,1.902 2.012,3.018c-0.208,1.661 -2.529,3.257 -2.098,4.162c13.263,27.852 41.689,47.149 74.537,47.149c45.491,0 82.5,-37.009 82.5,-82.5c0,-45.491 -37.009,-82.5 -82.5,-82.5c-5.421,-0.002 -10.829,0.529 -16.146,1.586c-0.556,0.111 -0.957,2.438 -0.957,2.438l-2.012,0c0,0 -0.325,-1.712 -0.614,-1.64c-35.996,8.866 -62.771,41.423 -62.771,80.116ZM6.6,82.5c-0.018,-16.52 5.386,-32.599 15.378,-45.755c0.391,-0.515 -0.206,-1.873 0.104,-2.457c0.015,-0.029 0.033,-0.056 0.052,-0.081c0.24,-0.299 1.007,-1.006 1.007,-1.006c0,0 1.43,0.307 1.743,-0.059c1.338,-1.559 2.737,-3.063 4.196,-4.511c0.379,-0.375 0.097,-2.473 0.097,-2.473l0.965,-0.044c0,0 1.22,0.345 1.501,0.091c7.627,-6.905 16.578,-12.19 26.309,-15.532c1.099,-0.377 1.204,-2.741 2.325,-3.069c1.053,-0.248 2.118,-0.437 3.192,-0.566l-0.085,-2.009l4.025,1.006l4.024,-3.018l4.024,1.006l1.006,3.018c0,0 3.614,-0.442 6.037,-0.442c1.043,0 4.024,-1.57 4.024,-1.57c0,0 1.978,-0.441 3.019,0c0.06,0.026 0.121,0.053 0.182,0.082c1.411,0.666 3.056,2.164 4.66,2.417c24.539,3.876 45.204,19.551 55.986,41.013c0.17,0.337 3.562,-0.248 3.562,-0.248l3.018,2.012l1.006,3.018l-2.012,1.006c0,0 -3.076,-0.278 -2.942,0.058c3.575,8.941 5.407,18.484 5.397,28.113c0,28.291 -15.559,53.017 -38.569,66.069c-0.523,0.296 0.333,2.737 -0.105,4.358c-0.518,1.912 -2.332,3.082 -3.019,4.024c-0.876,1.205 -2.361,-1.839 -3.018,-1.006c-0.954,1.212 -2.787,0.519 -4.025,1.006c-2.725,1.074 -4.957,-1.803 -7.824,-1.047c-6.312,1.661 -12.813,2.5 -19.34,2.496c-41.852,0 -75.9,-34.048 -75.9,-75.9ZM152.928,86.524l2.012,0l0,2.013l-2.012,0M152.928,101.616l1.005,2.012l-1.005,0l0,-2.012ZM14.085,108.659l1.007,0l6.036,10.06l0,2.013l-2.012,0l-5.031,-12.073ZM10.061,66.402l1.006,0l2.012,-3.018l0,-2.012l-1.007,0l-2.012,5.03M43.529,140.425l9.054,2.013l1.007,2.012l-10.061,-4.025Z" style="fill:#246364;"/><path d="M147.255,92.898l0.295,-3.843c-1.937,-0.891 -2.45,-2.014 -4.141,-2.956c-0.69,0.985 -1.38,1.97 -2.07,2.956c-3.837,0.068 -5.15,0.613 -8.577,0.295c-0.103,2.145 -1.839,3.625 -4.436,4.139c-0.246,3.82 -0.577,10.788 1.775,13.005l9.759,-2.955c0.099,0.098 0.197,0.196 0.296,0.295c-0.638,2.261 -5.7,6.313 -2.367,6.798l2.958,-0.885l0,-2.957l1.183,0.59c1.35,0.565 1.859,1.622 2.662,2.661c-0.01,2.353 -0.386,4.123 -2.366,3.842c-2.893,1.476 -5.448,-1.658 -8.873,-0.885l0.887,4.138l2.958,0.295c0.037,2.148 0.494,2.533 0.887,4.139c-2.756,2.533 -3.748,6.53 -6.802,8.867c-2.125,-0.817 -3.384,-2.694 -5.915,-3.547l0.295,1.183l4.436,2.955c-0.87,2.171 -3.591,3.966 -5.323,5.321l-1.479,-0.295l1.183,-3.251l-0.887,-0.591l-2.07,1.183c-1.585,-1.025 -1.05,-1.594 -1.775,-3.252c-1.53,-0.259 -2.08,-0.064 -3.253,0.59l0.295,1.478c1.186,0.171 0.886,-0.013 1.479,0.591l0.295,1.182l-1.183,1.182c-2.303,-0.131 -6.666,-0.935 -7.689,-2.069c0.64,-1.752 1.233,-2.413 0.885,-3.547l-0.295,0c-1.687,1.535 -4.108,3.822 -4.732,6.503l1.479,0.886c-0.833,1.554 -1.716,2.16 -2.958,3.251l-4.436,-0.295l-0.295,1.181c1.646,2.213 2.339,3.442 4.436,5.32l0,0.591l-3.549,1.182c-1.121,-1.252 -1.741,-2.638 -3.253,-3.547l-0.295,0l1.183,3.843l-0.295,0.295c-2.319,0.246 -6.882,1.863 -8.577,0.295c-0.394,-2.66 -0.788,-5.32 -1.183,-7.981c-2.955,-7.075 -11.864,-23.023 -10.351,-30.445l1.479,0c3.908,7.07 8.232,14.768 12.421,21.872c1.503,2.551 1.424,6.093 3.549,7.981l0.295,0c1.125,-2.007 3.716,-3.107 5.324,-2.365l1.183,-2.069l2.365,2.069l0,-0.59c0.838,-2.893 -2.272,-3.394 -3.548,-5.025c-2.05,-5.053 -1.498,-10.836 -2.366,-15.961c-0.691,-1.479 -1.381,-2.956 -2.071,-4.434c-0.188,-1.367 0.69,-1.151 0.888,-1.774c0.907,-2.868 -0.573,-6.398 -1.184,-8.276l-0.295,0l-2.661,0.885l-0.295,-0.295c-0.02,-4.111 -1.51,-7.257 -3.254,-9.754l-0.295,0l0,0.59c-2.388,4.814 5.312,36.019 1.183,35.772c-1.084,-6.404 -2.168,-12.808 -3.253,-19.213l1.479,-1.183c-0.416,-3.678 -0.536,-8.358 -2.957,-10.345c-1.945,1.412 -3.685,1.8 -6.507,2.66l0,2.069l-0.295,0c-2.357,-1.138 -3.59,-3.155 -6.803,-3.547l-0.59,0.296l4.732,10.641l0.295,8.867c0.485,1.749 1.896,2.139 1.479,4.434l-0.295,0l-3.254,-0.886l-0.295,0.591c3.086,7.604 12.213,16.922 13.013,24.829l-0.59,0.591c-6.272,-3.134 -7.808,-12.783 -11.83,-18.327c-1.539,-2.12 -5.22,-1.419 -7.69,-2.66c-1.511,-0.759 -1.696,-2.128 -3.253,-2.365c0.285,8.603 2.58,14.845 4.14,19.214l7.391,3.843c1.983,0.301 2.195,-1.942 4.141,-0.591c0.196,0.197 0.393,0.394 0.59,0.591l0,1.478c-4.347,-0.111 -19.881,-3.622 -20.407,-4.139c-0.316,-0.311 -1.451,-3.723 -1.479,-3.842c-0.517,-2.231 3.135,-12.195 -0.59,-15.075c-2.789,0.667 -5.937,0.567 -7.985,1.478c-1.424,-1.424 -1.907,-1.671 -4.436,-1.478l0,-0.886l0.59,-0.887c2.88,-0.242 8.393,-0.161 9.76,-2.069c1.014,-3.032 -2.812,-21.87 -4.732,-23.056l-0.888,0.886c-2.062,6.046 -1.247,3.021 -6.504,5.321c0.017,3.646 -0.193,13.341 -1.479,15.666c-2.021,0.283 -2.375,1.044 -3.253,2.364l0,1.183l0.887,0.885c2.742,-0.274 3.867,-0.733 5.324,1.183c0.645,1.313 1.363,8.427 1.183,8.867l0,0.296c-0.57,0.448 -0.524,0.529 -0.888,1.182l-1.183,0c-4.275,-5.39 -17.642,-12.307 -18.632,-20.101l1.183,-12.119c-3.79,-1.774 -5.376,-3.703 -7.985,-6.503c0.021,-7.636 5.619,-13.997 4.141,-21.282c-2.539,-0.493 -7.872,-3.085 -7.985,-6.207l5.914,-0.886l0.296,-0.887l-0.296,-0.885l-2.07,-0.886l-2.07,1.478l-0.591,-0.295l2.662,-8.868c1.871,0.423 3.064,0.09 4.436,0.886l2.367,-2.66c2.585,0.48 7.479,2.898 8.281,2.66c0.232,-1.822 1.985,-1.937 2.957,-3.252l1.774,0.591c0.468,1.403 0.987,1.912 2.071,2.66l1.182,0l2.662,-3.252c-0.657,-3.358 -2.664,-5.674 -4.14,-8.276l1.478,-2.069c-1.652,-1.733 -6.236,-6.619 -5.027,-9.754c3.176,-7.744 28.682,-5.318 26.322,0.885c0.586,2.65 -1.485,4.649 -3.55,5.616c0.519,3.464 0.738,4.841 0.296,8.277l-1.479,0.885l-0.59,-0.295c0.064,-3.034 0.673,-3.741 1.183,-6.207c-3.734,-2.42 -3.857,1.398 -7.69,2.069l-2.07,-1.478c-0.129,1.889 -0.522,3.357 0.295,4.434l2.366,-1.182l1.479,0.885c1.583,8.122 -0.854,2.931 -5.619,6.503l0,0.59l0.295,0.296c3.924,0.049 4.709,-0.728 7.394,-1.478l0.295,0.59c-0.922,1.499 -1.987,1.771 -2.366,3.843l2.07,2.364c-0.252,4.784 -0.777,7.35 -1.183,12.119l0.887,0.296l1.479,0.295c3.383,-7.444 0.356,-13.889 1.183,-20.692c1.903,0.365 1.249,1.167 2.366,1.774c2.945,1.6 10.065,0.022 11.534,0.59c1.259,0.488 2.916,1.313 4.732,1.774c0.846,-0.743 0.759,-1.052 2.07,-1.478l1.183,2.069l0.59,0l3.55,-4.138c1.913,1.125 3.537,2.885 5.027,1.182l0.888,-0.295l0.887,0.295l2.366,3.843l1.774,-0.591c0.099,-1.084 0.197,-2.167 0.296,-3.251l1.774,0.59l0.591,1.478l0.59,-0.295c0.037,-1.923 -0.129,-2.362 1.183,-3.252c2.521,1.451 3.571,4.1 6.506,5.025l1.775,-2.069c-0.69,-5.615 -1.38,-11.232 -2.07,-16.848l9.464,-3.252c-0.197,-1.477 -0.394,-2.955 -0.591,-4.434l0.888,-0.885l4.735,0l0.888,4.138c2.821,-0.303 2.75,-0.404 4.731,0.591l0,-1.183c-0.72,-0.814 -0.797,-0.43 -1.182,-1.774l0.887,-0.59l1.183,0l0.59,0.59c1.282,8.079 2.563,16.159 3.845,24.239l0.295,0l1.183,-0.296l1.479,-1.773l1.478,0.295c0.303,1.414 0.567,1.642 1.479,2.365c3.463,0.004 7.202,-0.306 8.873,-1.183c0.098,-0.985 0.197,-1.97 0.295,-2.956l0.295,0l1.183,0.295c3.677,11.956 4.355,18.914 4.14,34.288l-0.887,0.295c-0.863,0.674 -1.354,0.836 -2.955,0.896ZM47.587,38.51c-0.927,1.225 -0.561,3.197 -1.774,4.138c-1.193,0.664 -1.786,0.357 -2.366,1.774c4.91,-0.729 10.283,-2.108 14.492,-0.591c0.384,-0.627 0.364,-0.427 0.591,-1.478c-1.651,-2.653 -7.628,-3.115 -10.943,-3.843ZM120.636,42.057l-0.59,1.478c1.079,-0.313 0.869,-0.241 1.478,-0.886l-0.59,-0.295l-0.298,-0.297ZM123.298,42.057c-0.065,0.984 -0.276,0.679 0.295,1.478l0.59,-0.296l0,-1.182l-0.887,0l0.002,0ZM116.496,42.352c-1.262,0.826 -1.879,1.035 -2.662,2.364l0,0.296l2.662,0.295c-0.085,2.068 0.025,3.571 1.182,5.025l0.591,-0.886c1.397,-2.379 1.447,-6.695 -1.772,-7.094l-0.001,0ZM125.664,43.533c-0.461,2.387 1.134,17.862 2.366,20.396l0,-0.591c0.971,-2.061 -1.131,-17.312 -2.365,-19.803l-0.001,-0.002ZM107.624,45.899c-0.413,1.633 0.137,2.376 0.888,3.547l4.731,0.59c0.502,-1.655 1.147,-1.859 2.071,-2.956l0,-0.295l-0.888,-0.295c-1.319,0.974 -1.658,1.457 -4.14,1.478c-0.744,-1.039 -1.235,-1.647 -2.662,-2.069ZM122.117,46.489c-0.915,2.236 -2.022,3.562 -1.479,6.503c0.888,0.886 1.775,1.773 2.662,2.661l0.887,-0.296c-0.41,-1.996 0.883,-2.877 0.591,-4.433c-0.351,-1.808 -1.185,-3.682 -2.662,-4.435l0.001,0ZM45.518,49.15l-1.479,1.773l1.183,3.252l1.183,-0.296c0.118,-2.121 0.121,-2.951 -0.295,-4.729l-0.59,0l-0.002,0ZM113.54,51.219l-2.957,3.251l-2.662,-0.59l1.183,2.365l2.958,-0.591l2.366,-2.364c-0.079,-1.564 0.068,-1.426 -0.889,-2.07l0.001,-0.001ZM50.25,52.992l-1.183,2.365l0.887,0.295l1.479,0l0.295,-2.069l-0.59,-0.59l-0.887,0l-0.001,-0.001ZM115.906,53.878c-1.4,1.708 -3.125,4.689 -4.14,6.503l2.366,1.181l-0.59,1.773c-1.596,0.137 -2.446,-0.3 -3.845,0.295l0,1.478c0.197,0.197 0.393,0.394 0.59,0.591c2.602,0.002 4.075,-0.762 5.62,-1.774c-0.25,-2.135 -0.884,-2.708 -0.591,-4.729c0.809,-1.138 1.095,-1.582 2.958,-1.774l0.59,2.07c1.289,-0.155 2.595,-0.055 3.845,0.295c0.492,1.378 0.902,0.944 0.295,2.069l0,0.59l-3.549,-0.295l0.59,1.774l4.732,-0.591l0,-1.478c-0.497,-1.253 -0.349,-1.564 0.296,-2.955c-2.804,-2.009 -5.048,-2.743 -7.394,-5.025l-1.774,0l0.001,0.002ZM46.996,62.748l2.366,2.364l0.887,-0.295l0.295,-0.59l-0.887,-0.886l-2.661,-0.593ZM64.149,63.338c-0.194,1.125 -0.311,1.43 -0.886,2.069l-2.366,-1.773l0,0.295c2.123,5.254 -1.52,13.457 1.479,19.508l-0.295,0.591l-2.958,0.295l-1.183,-2.365l-0.887,0.591c-0.748,1.476 -1.936,1.556 -2.661,2.956l7.097,0.295l0,1.187l-0.59,0.295c-1.873,0.252 -4.82,0.093 -5.915,1.182l0,0.295c3.057,1.131 3.577,2.526 7.69,1.774l0.295,0.295l-0.295,1.478l-2.958,0.591l0,0.295l0.295,0.295c3.843,0.097 8.051,-0.948 9.76,-3.547l0.59,-2.365c-1.745,-1.741 -4.728,-2.119 -6.506,-3.843c1.856,-4.653 5.374,-7.303 6.506,-12.119c-1.26,-1.093 -1.905,-1.323 -1.478,-2.66l0.295,0l3.549,1.774c0.139,-2.775 1.636,-5.23 0.59,-6.799c-0.88,0.754 -0.832,1.664 -1.183,2.956c-4.062,-0.125 -5.512,-1.93 -7.985,-3.545l0,-0.001ZM52.023,64.224l0,0.885l0.888,-0.59l0,-0.295l-0.888,0ZM38.715,65.109l-0.295,1.774c-3.645,-0.256 -3.442,2.276 -5.62,4.138c-2.015,-1.56 -2.833,-1.387 -5.619,-0.59c0.006,1.628 1.328,3.903 2.07,6.207l2.071,-2.069l7.985,-4.138l0.295,0.295c-0.815,3.385 -5.411,3.061 -7.394,5.321l0,1.18c2.401,1.877 6.73,5.382 7.986,8.277c-1.914,2.069 -4.706,4.867 -2.958,7.981c2.258,0.62 3.959,1.441 6.802,0.885c-0.036,-1.688 -0.489,-1.242 0.59,-2.069c1.923,-1.082 4.218,-1.178 6.803,-0.885l0,-2.952l-2.071,-0.886l0,-0.295l2.366,-1.18l-0.887,-1.183c-3.544,-0.436 -5.051,0.374 -8.281,-0.59l0,-0.295c0.325,-1.408 0.203,-4.053 0.887,-5.025l2.366,0.885l1.775,-2.364l-0.887,-1.183c0.67,-0.403 0.584,-0.429 1.774,-0.59c1.049,0.531 1.288,0.771 2.958,0.885l0,-0.59l0.59,-2.069l-10.647,-9.163l-2.659,0.288ZM85.739,64.814l-0.295,0.886l0.295,0.885c1.08,-0.313 0.869,-0.24 1.478,-0.885l-0.59,-0.886l-0.887,0l-0.001,0ZM21.561,65.7l0,1.186l1.183,0l0.295,-0.591l-1.478,-0.595ZM93.724,65.995l0.59,1.18c-0.389,2.053 -1.353,3.234 -2.07,5.617c-3.662,1.269 -8.378,3.715 -12.422,1.773c-0.744,-3.268 -2.102,-5.63 -3.548,-8.276l-0.888,0l-0.295,0.295l0,1.182l2.071,1.478c-0.354,2.748 -0.354,5.529 0,8.277l2.07,0.59l0,4.138l0.887,0.295c1.059,0.434 2.752,0.099 3.549,-0.59c-0.685,-1.265 -0.999,-1.481 -0.887,-2.956l1.478,0c2.14,1.67 3.558,5.307 6.211,6.207c0.197,-1.379 0.394,-2.758 0.59,-4.138l-4.436,-3.251c0.296,-0.591 0.591,-1.182 0.886,-1.774c2.286,-0.404 2.623,-0.236 4.732,0.295c1.088,-3.62 3.067,-2.904 4.732,-5.32c0.67,-1.701 -0.617,-4.088 -2.07,-4.729l-1.18,-0.293ZM137.791,67.768c-4.354,2.108 -9.544,0.685 -13.013,3.547c0.098,0.492 0.197,0.985 0.295,1.478l0.295,0c5.278,-0.936 9.938,-1.576 15.971,-1.478c0.991,-1.303 1.653,-1.305 3.253,-2.069l-0.887,-0.886c-1.489,-0.914 -3.959,-0.437 -5.914,-0.587l0,-0.005ZM146.367,69.246l-0.295,0.295l1.183,0.591l0,-0.886l-0.887,0l-0.001,0ZM106.145,70.132c-2.342,1.479 -5.533,1.674 -8.281,2.956l0,0.295c4.2,2.6 3.209,4.742 5.62,6.503c2.955,0.742 8.068,-1.897 11.534,-0.591l3.253,-2.069l0,-4.428l0.295,0c1.38,0.985 2.761,1.97 4.141,2.956c-2.203,-3.23 -4.44,-3.378 -7.69,-5.025c-2.152,1.14 -5.061,3.302 -7.393,2.365l0,-2.957l-1.479,0l0,-0.005ZM23.04,70.722l-1.183,1.182l0.59,0.886l1.183,1.773l0.591,-0.295c0.175,-1.621 0.256,-2.094 -0.295,-3.251l-0.886,-0.295ZM72.726,71.312c-1.239,4.671 -4.078,5.758 -4.141,12.119l1.183,-0.295c1.606,0.263 2.412,-0.58 3.845,-0.885c0.222,-2.688 0.942,-9.285 -0.887,-10.931l0,-0.008ZM137.791,71.607c-0.418,1.448 -1.014,2.838 -1.775,4.139c3.755,0.102 8.17,-0.371 10.647,-1.774l0.295,-0.59l-0.295,-1.478c-2.632,0.253 -4.024,2.117 -6.211,1.478l-2.661,-1.775ZM133.058,73.972c-2.016,1.287 -5.271,0.924 -7.393,2.365l-0.295,2.364l0.887,0c1.56,-2.562 6.641,-1.394 8.872,-3.251l-1.183,-1.478l-0.887,0l-0.001,0ZM98.752,75.746l-0.591,0.295l0.296,1.773l1.774,-0.59l0,-0.886l-0.59,-0.59l-0.887,0l-0.002,-0.002ZM29.546,77.823c-0.093,3.342 0.502,7.824 2.071,9.754c1.261,-0.553 2.808,-0.341 4.436,-0.59l0.295,-0.59c-0.684,-3.734 -3.641,-7.395 -6.802,-8.574ZM93.724,78.118l0,1.181l0.59,0c-0.268,-1.077 0.013,-0.603 -0.59,-1.18l0,-0.001ZM139.861,79.299l-3.549,2.66l0,0.885l0.59,0.296l4.732,-1.183l0.295,-1.478l-2.068,-1.18ZM144.001,79.594c-0.064,0.984 -0.275,0.679 0.295,1.478l0.296,0l0.295,-0.591l-0.886,-0.887ZM120.046,80.184l-0.296,0.59l5.028,4.139c-0.552,-1.947 -2.791,-4.161 -4.732,-4.726l0,-0.003ZM130.693,81.367c-0.854,1.665 -0.693,2.761 -0.591,5.32l1.775,-0.59c0.402,-1.935 1.063,-3.055 1.774,-4.434l-2.958,-0.296ZM96.386,82.549l-1.479,1.773l0,1.183c2.129,0.64 3.133,3.294 4.14,5.025l1.775,0l0,-0.591c-0.394,-1.97 -0.788,-3.94 -1.183,-5.911c-1.736,-0.243 -2.063,-0.784 -3.253,-1.476l0,-0.003ZM109.99,83.73c-0.197,0.295 -0.394,0.59 -0.59,0.885c0.098,0.197 0.196,0.394 0.295,0.591c1.912,-0.181 1.895,0.128 3.549,0.59c-0.496,-1.531 -1.361,-1.951 -3.254,-2.062l0,-0.004ZM146.663,84.615l-0.295,0.591l0.59,0.59l0.591,0c0.098,-0.394 0.196,-0.787 0.295,-1.181l-1.183,0l0.002,0ZM71.838,85.206c-0.099,0.492 -0.197,0.984 -0.296,1.477c1.307,1.06 2.24,2.51 2.662,4.139c4.389,-0.464 3.532,1.386 7.098,2.069c2.143,-1.462 3.314,-3.745 5.028,-5.616l-0.295,-0.295c-2.309,0.18 -2.937,-0.009 -4.733,-0.591l-0.887,1.478c-3.727,-0.418 -5.682,-1.499 -8.577,-2.655l0,-0.006ZM107.032,85.206l0,1.781l0.59,0.59l1.183,0l0,-1.478l-0.887,-0.59l-0.886,-0.303ZM103.187,85.501l-0.59,0.885l1.183,1.774l0.59,-0.295c-0.125,-1.498 -0.169,-1.747 -1.182,-2.357l-0.001,-0.007ZM141.043,85.796l0.59,0.59l-0.59,-0.59ZM120.636,87.577l0.295,1.181l4.436,3.547l0,-0.295l-3.843,-4.433l-0.888,0ZM111.763,88.167l-3.253,2.66l-4.138,-2.363c0.051,3.51 -1.371,2.123 -2.07,4.729c-0.771,2.876 -0.553,6.757 -0.886,8.868c1.813,1.657 1.422,3.519 2.07,6.798c2.904,1.04 2.955,0.696 4.732,3.252c3.632,-3.385 9.986,0.387 13.901,-2.956c-0.099,-1.576 -0.197,-3.153 -0.296,-4.729l0.296,0l5.025,2.957c-0.957,-3.177 -4.114,-2.88 -5.62,-5.321c-0.67,-1.368 -0.702,-4.423 0,-5.32l4.437,3.251l0.295,0c-1.368,-4.197 -6.274,-4.691 -7.69,-9.163c-1.6,0.462 -1.954,0.905 -3.844,0.59c-0.54,-1.684 -0.833,-2.326 -2.071,-3.251l-0.887,0l-0.001,-0.002ZM33.686,89.348l-2.662,3.252l-5.323,1.18l-0.295,-1.18c-1.647,0.516 -2.501,1.879 -3.254,3.251l0.59,0.885l4.437,2.07c2.198,-2.329 3.075,-2.979 5.915,-4.138c0.447,-1.97 1.83,-3.856 0.887,-5.321l-0.295,0l0,0.001ZM73.908,92.304l-0.888,2.069l0.591,0c1.546,1.231 2.709,-0.736 2.366,-2.069l-2.071,0l0.002,0ZM46.107,93.486l-0.295,0.295l0.59,0.591l0.888,-0.295l0,-0.296l-1.183,-0.295ZM54.684,94.372l-2.366,2.364l-2.958,-0.885c-0.196,0.295 -0.393,0.59 -0.59,0.885c0.295,0.69 0.591,1.38 0.887,2.07c4.335,0.791 7.81,2.806 11.239,-0.886l-0.887,-1.773c-2.667,-0.204 -3.14,-1.27 -5.324,-1.771l-0.001,-0.004ZM78.935,94.962c0.602,0.964 0.615,1.023 1.775,1.478l-1.775,-1.478ZM32.504,96.445l-0.887,0.885l0.295,1.183c1.082,0.303 1.649,0.086 2.661,-0.295l0,-1.183l-0.59,-0.59l-1.479,0l0,0ZM94.611,97.33c-0.295,0.492 -0.59,0.985 -0.885,1.478c0.357,1.276 0.606,1.398 1.478,2.069l0.295,0l0,-0.59c0.56,-1.383 0.358,-2.385 -0.888,-2.956l0,-0.001ZM29.251,99.992l-0.887,1.478c1.008,-0.414 0.909,-0.398 1.479,-1.183l-0.592,-0.295ZM60.008,100.287l-6.211,2.66c2.332,5.963 2.334,13.728 3.845,20.987c4.17,0.045 7.651,-1.117 11.239,-2.069l0.295,-0.591c-2.741,-6.396 -4.05,-15.042 -7.69,-20.986l-1.478,0l0,-0.001ZM46.699,101.765l-0.295,1.774l0.295,0.295l0.888,-0.591l0,-1.478l-0.888,0l0,0ZM40.193,102.652l1.183,1.478l0.295,-0.591l0,-0.295l-0.295,-0.59l-1.183,0l0,-0.002ZM66.219,103.537c0.401,5.317 3.53,11.611 5.619,15.962l1.183,-0.886l0,-1.182c-2.712,-4.493 -2.916,-10.59 -6.802,-13.892l0,-0.002ZM123.594,111.518c0.465,2.258 2.689,3.245 4.732,3.843l0,-0.295c-0.952,-1.758 -2.341,-3.21 -4.731,-3.546l-0.001,-0.002ZM124.481,118.908l0,1.773l4.732,2.365c-0.628,-2.391 -2.608,-3.283 -4.731,-4.137l-0.001,-0.001ZM69.768,123.934c0.398,1.006 0.18,0.612 0.888,1.183l0.295,0l0,-0.295l-1.183,-0.888ZM100.23,125.412l0,1.774l0.59,-0.295c-0.188,-1.075 -0.117,-0.896 -0.589,-1.479l-0.001,0ZM37.827,127.481c0.359,1.461 0.07,1.099 1.479,1.478l0,-0.885l-0.296,-0.591l-1.183,0l0,-0.002ZM41.08,130.437c-0.098,0.69 -0.197,1.38 -0.295,2.069l0.886,0.591l0.295,-0.886c-0.294,-0.591 -0.589,-1.183 -0.885,-1.774l-0.001,0ZM52.319,135.167l0.59,0.295c-0.12,2.597 -0.979,5.367 -2.662,6.503l-0.887,-0.591l0,-0.295l2.959,-5.912ZM111.172,140.487l1.184,0.59l0,1.183c-1.476,0.767 -2.065,1.699 -3.254,2.66l-3.844,-0.295l0,-0.59c1.8,-1.606 4.417,-1.591 5.915,-3.548l-0.001,0ZM114.426,140.487l1.479,0.295l0,1.181l-0.591,0.59l-1.478,-0.295l0,-0.295l0.59,-1.476ZM95.498,141.965l0.295,2.069l0.59,0l0,-2.069l-0.887,0l0.002,0Z" style="fill:#246364;"/></svg>