<?xml version="1.0" encoding="UTF-8" standalone="no"?>
<!DOCTYPE svg PUBLIC "-//W3C//DTD SVG 1.1//EN" "http://www.w3.org/Graphics/SVG/1.1/DTD/svg11.dtd">
<svg version="1.1" xmlns="http://www.w3.org/2000/svg" xmlns:xlink="http://www.w3.org/1999/xlink" preserveAspectRatio="xMidYMid meet" viewBox="0 0 353 541" width="353" height="541"><defs><path d="M131.88 101.33L65.94 101.33L0 101.33L0 129.97L0 158.61L65.94 158.61L131.88 158.61L131.88 179.92L131.88 201.23L97.91 201.23L63.94 201.23L64.21 229.47L64.61 257.85L98.31 258.24L131.88 258.51L131.88 399.71L131.88 540.91L171.84 540.91L211.8 540.91L211.8 399.71L211.8 258.51L282.4 258.51L353 258.51L353 229.87L353 201.23L282.4 201.23L211.8 201.23L211.8 179.92L211.8 158.61L250.43 158.61L289.06 158.61L289.06 129.97L289.06 101.33L250.43 101.33L211.8 101.33L211.8 50.71L211.8 0.09L171.84 0.09L131.88 0.09L131.88 50.71L131.88 101.33Z" id="a5GE1OOH"></path></defs><g><g><g><use xlink:href="#a5GE1OOH" opacity="1" fill="#2f5962" fill-opacity="1"></use><g><use xlink:href="#a5GE1OOH" opacity="1" fill-opacity="0" stroke="#000000" stroke-width="0" stroke-opacity="0"></use></g></g></g></g></svg>